<svg width="48" height="27" viewBox="0 0 48 27" fill="none">
  <g clip-path="url(#clip0_4527_69847)">
    <path d="M17.5752 12.1639C17.683 12.0878 19.5629 10.7817 19.5883 10.6675H17.0902C16.9919 10.6675 16.9254 10.6675 16.8873 10.5407H16.8842C16.6527 9.82429 16.1202 8.24873 16.0409 8.20752C15.7809 9.00005 15.521 9.78942 15.2674 10.5788C15.2389 10.6675 15.1786 10.6707 15.1057 10.6707C14.5414 10.6612 12.8581 10.6992 12.5347 10.6992C12.5918 10.75 13.9328 11.7042 14.5858 12.167C14.6682 12.2241 14.7094 12.2653 14.6714 12.3858C14.4622 13.0039 13.9486 14.5541 13.9486 14.7158C13.9962 14.7317 15.2547 13.8282 15.8634 13.397C16.0261 13.2808 16.1888 13.2808 16.3516 13.397C16.3706 13.4097 17.6355 14.2974 18.2568 14.7317C18.2917 14.6175 17.7464 13.0737 17.5087 12.3731C17.477 12.2716 17.4833 12.2304 17.5752 12.1639Z" fill="white"/>
    <path d="M46.097 20.1208L46.0716 20.1303C46.0399 19.3948 45.4376 17.889 44.9114 17.4103C45.1364 16.7351 44.8226 16.3927 44.6419 16.1645C44.5341 16.0313 44.1759 15.9394 44.0174 15.876C43.4499 15.0137 42.2358 14.2307 40.5334 13.7298C39.4302 13.4064 38.1241 13.1972 36.65 13.1655C36.5834 13.1655 36.5105 13.1623 36.4312 13.1623C36.2822 13.1623 36.1174 13.1687 35.9399 13.1782C34.5894 13.2511 32.5161 13.5523 32.0311 13.5523H31.9899C31.787 13.5427 31.2861 13.3208 30.6933 13.0862C29.9959 12.8073 29.1811 12.5125 28.5788 12.5125C28.5154 12.5125 28.452 12.5125 28.3949 12.522C27.8275 12.5917 26.4897 13.4445 25.9951 13.7171C25.6559 13.9041 24.5591 14.3733 24.2452 14.573C24.1787 14.5952 24.0297 14.5952 23.9663 14.6174C23.1832 14.8774 22.6316 15.7745 22.397 15.9299C22.3717 15.8348 22.0768 15.4258 21.6616 15.4258C21.614 15.4258 21.5633 15.4321 21.5126 15.4448C21.0085 15.6541 21.0434 16.0281 21.0434 16.2088C20.9451 16.1708 20.7993 15.9901 20.5235 15.9901C20.4252 15.9901 20.3079 16.0123 20.1779 16.0693C19.6232 16.3673 19.9212 16.8587 19.788 17.0267C19.5883 17.293 18.9321 17.9492 18.6848 18.4026C18.5802 18.5896 18.6943 19.0778 18.6151 19.2712C18.3963 19.8038 17.2202 20.7485 17.1092 20.9609C17.0712 21.0591 17.3882 21.3762 17.7781 21.6837C18.1364 21.9658 18.5485 22.2321 18.8053 22.2955C19.5249 22.2955 21.0687 21.9975 21.4048 21.9595H21.4079C21.5062 21.9595 21.6838 22.026 21.912 22.0863C22.1117 22.137 22.3527 22.1877 22.6253 22.1877C22.6982 22.1877 22.7774 22.1877 22.8535 22.1782C23.2054 22.1053 23.44 21.9436 23.6334 21.7502C23.9536 21.4269 24.1374 21.0179 24.502 20.8563C24.781 20.7295 25.136 20.6375 25.4435 20.6375C25.5957 20.6375 25.7384 20.6597 25.8525 20.7136C25.2723 21.7534 25.3992 23.1451 25.1963 23.3448C24.9712 23.5636 24.7937 23.7918 24.6542 24.0074C24.1565 24.7714 24.0867 25.4656 23.8458 25.6273C23.7792 25.6717 23.6936 25.6875 23.5985 25.6875C23.3259 25.6875 22.955 25.5576 22.695 25.5576C22.6316 25.5576 22.5746 25.5639 22.5238 25.5829C22.2132 25.6971 21.4904 26.3628 21.7567 26.5213C21.8391 26.5276 23.0247 26.5276 24.2706 26.5276H25.3516C25.3833 26.5276 26.0459 25.9221 26.0776 25.9221H27.8306C27.9955 25.8968 27.9796 25.6337 28.7373 25.2469C29.5932 24.9109 29.1875 23.2561 30.2843 21.9912C30.2938 21.9912 30.6204 21.6837 30.6965 21.6837C31.0769 21.6837 31.7172 22.3748 34.0219 22.3748C36.3266 22.3748 36.8846 21.579 37.2016 21.579C37.3601 21.579 37.6771 21.8168 37.6771 21.8961C36.6468 23.646 39.2368 25.6115 39.0307 25.7351C39.0244 25.7414 39.0149 25.7414 39.0054 25.7414C38.9166 25.7414 38.6662 25.602 38.2889 25.602C38.1368 25.602 37.9656 25.6241 37.7754 25.6875C37.3569 25.827 37.0177 26.3564 37.3442 26.5181C37.4298 26.5181 38.4601 26.5213 39.4841 26.5213C40.0547 26.5213 40.6253 26.5213 41.0311 26.5181C41.1611 26.5023 41.1516 26.255 41.1452 26.0141C41.1421 25.8556 41.1389 25.7002 41.1738 25.6178C41.2815 25.4783 41.3766 24.9838 41.6525 24.6382C41.9219 24.3434 42.1311 24.1183 42.3531 24.1183C42.445 24.1183 42.5337 24.1595 42.632 24.2451C43.1171 24.5114 44.29 24.6573 44.9557 24.8982C45.2315 24.9996 45.4249 25.1106 45.4376 25.2596C45.4281 25.342 45.3615 25.3674 45.2664 25.3674C45.2252 25.3674 45.1808 25.3642 45.1333 25.3579C44.9716 25.3357 44.7592 25.2849 44.5531 25.2849C44.4453 25.2849 44.3439 25.3008 44.2456 25.3357C43.9445 25.4498 43.6401 25.7763 43.5545 26.0141C43.5102 26.144 43.526 26.2455 43.6465 26.274H46.4045C46.7215 26.274 46.6042 25.64 47.308 24.2325C47.4126 23.8362 46.4235 23.2941 46.2777 22.5428C46.1857 22.0514 46.0906 21.075 46.078 20.124L46.097 20.1208Z" fill="white"/>
    <path d="M27.6595 10.8577L31.4795 0.957382H36.0255L40.2037 11.7866C39.1068 11.533 37.9275 11.3935 36.6912 11.3681H36.6722H36.6531C36.6341 11.3681 36.6151 11.3681 36.5961 11.3681C36.5454 11.3681 36.4915 11.3681 36.4344 11.3681C36.26 11.3681 36.0793 11.3745 35.905 11.384H35.8701H35.8574H35.8448C35.7718 11.3871 35.6926 11.3935 35.6165 11.3998L33.7842 6.65729L31.8662 11.6249C31.8123 11.6027 31.7584 11.5805 31.7077 11.5615C31.5968 11.5171 31.4826 11.4696 31.3622 11.422C30.4492 11.0574 29.4791 10.7214 28.582 10.7214C28.4837 10.7214 28.322 10.7214 28.1286 10.7531C27.9765 10.7753 27.8148 10.8165 27.6531 10.8672L27.6595 10.8577ZM13.3653 26.515C16.174 26.515 18.2917 25.9603 20.1621 24.9331L20.5647 23.9124C19.899 24.0138 19.284 24.0931 18.8116 24.0931H18.5865L18.3678 24.036C17.8827 23.9124 17.3121 23.5953 16.6686 23.0881C16.4213 22.8947 16.025 22.5746 15.7207 22.1529C15.0169 22.3146 14.2625 22.4034 13.4382 22.4034C8.01094 22.4034 4.21945 18.6277 4.21945 13.2195C4.21945 8.11238 8.22017 4.1085 13.3304 4.1085C16.1931 4.1085 18.7292 5.24975 21.0782 7.58931L22.7394 3.37303C20.1431 1.21099 16.862 0 13.4382 0C9.8306 0 6.47659 1.28391 3.99754 3.61713C1.42022 6.04228 0 9.45335 0 13.2226C0 21.0497 5.49702 26.515 13.3653 26.515Z" fill="white"/>
  </g>
  <defs>
    <clipPath id="clip0_4527_69847">
      <rect width="47.3333" height="26.5214" fill="white"/>
    </clipPath>
  </defs>
</svg>
