<svg width="112" height="32" viewBox="0 0 112 32" fill="none" xmlns="http://www.w3.org/2000/svg">
<path d="M16.0693 0.417969C24.733 0.417969 25.8514 2.65397 29.2051 6.42676L25.1523 10.3389C22.3577 7.40462 19.423 6.00782 15.9297 6.00781C10.3403 6.00781 5.7286 10.3392 5.72852 16.3477C5.72852 22.3561 10.2004 26.6884 16.0693 26.6885C21.9383 26.6885 22.3576 25.1511 25.1523 22.3564L28.9941 26.3359C25.1094 30.2009 21.6252 31.998 15.9297 31.998C6.42757 31.998 0 25.4304 0 16.208C4.09183e-05 6.9857 7.40569 0.418003 16.0693 0.417969ZM43.0391 8.38379C48.7681 8.38381 48.0691 9.36204 50.0254 11.458V9.08203H55.6152V31.2998H50.0254V28.9238C48.0691 30.8801 45.9734 31.8584 43.1787 31.8584C37.5892 31.8584 32.5586 26.968 32.5586 20.1211C32.5586 13.2742 37.3098 8.38379 43.0391 8.38379ZM84.9609 17.3271C85.3801 21.3793 87.4757 24.5935 90.5498 26.6895C90.969 26.9689 91.2488 27.248 91.668 27.3877C92.7858 27.9466 94.0433 28.366 95.3008 28.6455C95.72 28.7852 96.1394 28.7852 96.5586 28.7852H98.2354C102.427 28.7852 106.061 26.9687 108.855 23.7549L111.231 25.5713C108.157 29.4838 103.545 31.5801 98.0957 31.5801C96.2792 31.5801 94.7421 31.4406 93.2051 31.0215C92.6461 30.8818 92.2269 30.6016 91.668 30.4619C89.9912 29.903 88.4539 29.0651 87.1963 27.9473H86.7773L86.2178 26.9688C83.7027 24.4536 82.1662 21.0998 81.8867 17.3271H84.9609ZM66.2354 31.2988H60.6455V0.417969H66.2354V31.2988ZM86.916 0.977539C88.0339 0.977539 89.0121 1.11711 89.9902 1.25684C88.5929 1.95547 87.3356 2.93402 86.2178 3.91211H75.1777V13.5537H86.4971C88.1738 13.414 89.5716 13.1342 90.6895 12.4355C91.9468 11.4575 92.785 9.9206 92.7852 8.24414C92.7852 7.26601 92.5052 6.42718 91.9463 5.72852C92.7847 5.16961 93.763 4.75017 94.8809 4.4707C95.5795 5.58857 95.8594 5.58922 95.8594 8.24414C95.8592 10.8989 94.6011 13.134 91.9463 14.5312L92.0859 14.6719C96.2779 16.0692 98.3749 18.7235 98.375 22.4961C98.375 24.4524 97.6756 26.4092 96.418 27.9463C95.1604 27.8065 94.0426 27.3869 92.9248 26.9678C94.1824 25.9896 95.3008 24.4523 95.3008 22.4961C95.3006 20.54 94.1826 18.7232 92.3662 17.7451C90.8292 16.9068 88.7329 16.628 86.2178 16.6279H75.0381V28.2256H86.0781C87.3357 29.3433 88.7326 30.3219 90.2695 31.0205H72.1035V0.977539H86.916ZM44.1572 13.4141C40.6638 13.4141 38.1484 16.3484 38.1484 19.9814V20.1211C38.1485 23.8939 40.6638 26.6885 44.1572 26.6885C47.6504 26.6882 50.3056 24.0334 50.3057 19.9814C50.3057 15.9294 47.6504 13.4143 44.1572 13.4141ZM29.0645 26.4082L28.9941 26.3359C29.0171 26.3131 29.0415 26.2915 29.0645 26.2686V26.4082ZM98.2354 0C103.685 5.37659e-05 108.436 2.0962 111.37 6.28809L108.995 8.10449C106.34 4.61123 102.567 2.93462 98.2354 2.93457C97.1175 2.93457 96.2789 3.07414 95.3008 3.21387C94.8816 3.3536 94.4621 3.49316 94.1826 3.49316C93.0648 3.91235 92.0865 4.33171 91.1084 4.89062C90.8291 5.0303 90.5498 5.30943 90.2705 5.44922C88.0347 7.12601 86.358 9.50213 85.5195 12.4365H82.4453C83.0042 9.50219 84.4011 6.84695 86.4971 4.75098L87.3359 3.77246H87.6152C88.5933 2.93418 89.8509 2.096 91.248 1.53711C91.6672 1.25768 92.0867 1.11823 92.5059 0.978516C94.3224 0.279851 92.7856 0 98.2354 0Z" fill="white"/>
</svg>
