<svg width="68" height="32" viewBox="0 0 68 32" fill="none" xmlns="http://www.w3.org/2000/svg">
<path d="M37.005 5.12012H39.765C41.54 5.12012 42.865 5.34012 43.725 5.78512C44.59 6.23012 45.3 6.94512 45.86 7.94512C46.42 8.94012 46.7 10.1051 46.7 11.4351C46.7 12.3801 46.545 13.2501 46.23 14.0451C45.915 14.8401 45.485 15.4951 44.935 16.0201C44.385 16.5451 43.79 16.9051 43.145 17.1051C42.505 17.3051 41.39 17.4051 39.805 17.4051H37.005V5.12012ZM39.315 7.37512V15.1251H40.395C41.46 15.1251 42.23 15.0051 42.71 14.7551C43.19 14.5101 43.58 14.0951 43.885 13.5201C44.19 12.9401 44.34 12.2251 44.34 11.3801C44.34 10.0751 43.975 9.06512 43.25 8.34512C42.595 7.70012 41.545 7.37512 40.1 7.37512H39.31H39.315Z" fill="white"/>
<path d="M48.925 5.12012H51.685C53.46 5.12012 54.785 5.34012 55.645 5.78512C56.51 6.23012 57.22 6.94512 57.78 7.94512C58.34 8.94012 58.62 10.1051 58.62 11.4351C58.62 12.3801 58.465 13.2501 58.15 14.0451C57.835 14.8401 57.405 15.4951 56.855 16.0201C56.305 16.5451 55.71 16.9051 55.065 17.1051C54.425 17.3051 53.31 17.4051 51.725 17.4051H48.925V5.12012ZM51.235 7.37512V15.1251H52.315C53.38 15.1251 54.15 15.0051 54.63 14.7551C55.11 14.5101 55.5 14.0951 55.805 13.5201C56.11 12.9401 56.26 12.2251 56.26 11.3801C56.26 10.0751 55.895 9.06512 55.17 8.34512C54.515 7.70012 53.465 7.37512 52.02 7.37512H51.23H51.235Z" fill="white"/>
<path d="M67.25 6.78994L65.525 8.31994C64.92 7.47494 64.305 7.04994 63.675 7.04994C63.37 7.04994 63.12 7.12994 62.925 7.29494C62.73 7.45994 62.635 7.64494 62.635 7.84994C62.635 8.05494 62.705 8.24994 62.845 8.43494C63.035 8.67994 63.605 9.20494 64.55 10.0149C65.44 10.7599 65.975 11.2299 66.165 11.4249C66.635 11.9049 66.97 12.3599 67.17 12.7999C67.365 13.2349 67.465 13.7149 67.465 14.2299C67.465 15.2399 67.12 16.0699 66.425 16.7249C65.73 17.3799 64.825 17.7099 63.715 17.7099C62.845 17.7099 62.085 17.4949 61.44 17.0649C60.795 16.6349 60.24 15.9649 59.78 15.0449L61.735 13.8599C62.325 14.9449 63 15.4899 63.765 15.4899C64.165 15.4899 64.5 15.3749 64.77 15.1399C65.04 14.9049 65.18 14.6349 65.18 14.3299C65.18 14.0499 65.075 13.7749 64.87 13.4949C64.665 13.2149 64.21 12.7899 63.515 12.2199C62.18 11.1299 61.32 10.2849 60.935 9.69494C60.545 9.10494 60.355 8.50994 60.355 7.91994C60.355 7.06994 60.68 6.33994 61.325 5.72994C61.97 5.11994 62.77 4.81494 63.72 4.81494C64.33 4.81494 64.91 4.95494 65.465 5.23994C66.02 5.52494 66.615 6.03994 67.26 6.79494" fill="white"/>
<path d="M37.08 19.845H37.74C38.165 19.845 38.48 19.895 38.69 20.005C38.895 20.11 39.065 20.285 39.2 20.52C39.335 20.76 39.4 21.035 39.4 21.355C39.4 21.58 39.365 21.79 39.29 21.98C39.215 22.17 39.11 22.33 38.98 22.455C38.85 22.58 38.705 22.665 38.55 22.715C38.395 22.765 38.13 22.785 37.75 22.785H37.08V19.845ZM37.635 20.385V22.24H37.895C38.15 22.24 38.335 22.21 38.45 22.15C38.565 22.09 38.66 21.99 38.73 21.855C38.805 21.715 38.84 21.545 38.84 21.34C38.84 21.03 38.755 20.785 38.58 20.615C38.425 20.46 38.17 20.385 37.825 20.385H37.635Z" fill="white"/>
<path d="M40.825 19.845H41.39L42.515 22.785H41.935L41.705 22.18H40.51L40.27 22.785H39.69L40.82 19.845H40.825ZM41.115 20.625L40.72 21.635H41.505L41.115 20.625Z" fill="white"/>
<path d="M42.66 19.845H44.28V20.395H43.745V22.785H43.18V20.395H42.66V19.845Z" fill="white"/>
<path d="M45.555 19.845H46.12L47.245 22.785H46.665L46.435 22.18H45.24L45 22.785H44.42L45.55 19.845H45.555ZM45.84 20.625L45.445 21.635H46.23L45.84 20.625Z" fill="white"/>
<path d="M50.65 21.6301L50.98 22.0101L50.83 22.1501L50.68 22.2851L51.15 22.7851H50.475L50.28 22.5851C49.97 22.7701 49.685 22.8601 49.42 22.8601C49.195 22.8601 49.015 22.7951 48.875 22.6601C48.735 22.5301 48.665 22.3601 48.665 22.1501C48.665 21.9951 48.705 21.8451 48.785 21.7101C48.865 21.5701 49 21.4301 49.19 21.2801C49 21.0251 48.905 20.8001 48.905 20.6051C48.905 20.4601 48.965 20.3151 49.09 20.1751C49.215 20.0351 49.39 19.9651 49.615 19.9651C49.84 19.9651 50.02 20.0351 50.145 20.1751C50.265 20.3151 50.33 20.4551 50.33 20.6001C50.33 20.7101 50.3 20.8201 50.245 20.9201C50.19 21.0251 50.06 21.1751 49.855 21.3751C50.095 21.6551 50.245 21.8301 50.315 21.9001C50.36 21.8701 50.465 21.7801 50.64 21.6301M49.925 22.1951C49.82 22.0951 49.68 21.9251 49.49 21.6901C49.295 21.8551 49.195 22.0001 49.195 22.1201C49.195 22.1751 49.22 22.2301 49.275 22.2801C49.33 22.3301 49.395 22.3501 49.48 22.3501C49.6 22.3501 49.745 22.3001 49.925 22.1951ZM49.59 20.9801C49.735 20.8551 49.81 20.7401 49.81 20.6451C49.81 20.5951 49.795 20.5551 49.76 20.5201C49.725 20.4901 49.685 20.4701 49.63 20.4701C49.58 20.4701 49.535 20.4901 49.5 20.5251C49.465 20.5601 49.45 20.6051 49.45 20.6501C49.45 20.7451 49.495 20.8551 49.59 20.9801Z" fill="white"/>
<path d="M52.73 19.845H53.39C53.815 19.845 54.13 19.895 54.34 20.005C54.545 20.11 54.715 20.285 54.85 20.52C54.985 20.76 55.05 21.035 55.05 21.355C55.05 21.58 55.015 21.79 54.94 21.98C54.865 22.17 54.76 22.33 54.63 22.455C54.5 22.58 54.355 22.665 54.2 22.715C54.045 22.765 53.78 22.785 53.4 22.785H52.73V19.845ZM53.285 20.385V22.24H53.545C53.8 22.24 53.985 22.21 54.1 22.15C54.215 22.09 54.31 21.99 54.38 21.855C54.455 21.715 54.49 21.545 54.49 21.34C54.49 21.03 54.405 20.785 54.23 20.615C54.075 20.46 53.82 20.385 53.475 20.385H53.285Z" fill="white"/>
<path d="M56.1 19.845H55.545V22.785H56.1V19.845Z" fill="white"/>
<path d="M59.425 20.3249L59.035 20.7149C58.785 20.4499 58.495 20.3199 58.165 20.3199C57.875 20.3199 57.635 20.4149 57.44 20.6099C57.245 20.7999 57.15 21.0349 57.15 21.3099C57.15 21.5849 57.25 21.8349 57.455 22.0299C57.655 22.2249 57.905 22.3249 58.2 22.3249C58.395 22.3249 58.555 22.2849 58.685 22.2049C58.815 22.1249 58.925 21.9949 59.005 21.8249H58.155V21.2999H59.63V21.4249C59.63 21.6799 59.57 21.9249 59.435 22.1549C59.3 22.3849 59.13 22.5599 58.92 22.6849C58.71 22.8049 58.46 22.8649 58.18 22.8649C57.875 22.8649 57.605 22.7999 57.365 22.6649C57.125 22.5299 56.94 22.3449 56.8 22.0999C56.66 21.8549 56.59 21.5899 56.59 21.3049C56.59 20.9149 56.72 20.5749 56.975 20.2899C57.28 19.9499 57.675 19.7749 58.16 19.7749C58.415 19.7749 58.655 19.8199 58.875 19.9149C59.065 19.9949 59.245 20.1299 59.425 20.3249Z" fill="white"/>
<path d="M60.66 19.845H60.105V22.785H60.66V19.845Z" fill="white"/>
<path d="M61 19.845H62.615V20.395H62.085V22.785H61.52V20.395H61V19.845Z" fill="white"/>
<path d="M63.89 19.845H64.455L65.58 22.785H65L64.77 22.18H63.575L63.335 22.785H62.755L63.885 19.845H63.89ZM64.18 20.625L63.785 21.635H64.57L64.18 20.625Z" fill="white"/>
<path d="M66.015 19.845H66.57V22.25H67.385V22.785H66.015V19.845Z" fill="white"/>
<path d="M38.615 24.61L38.2 24.975C38.055 24.775 37.91 24.67 37.755 24.67C37.68 24.67 37.62 24.69 37.575 24.73C37.53 24.77 37.505 24.815 37.505 24.865C37.505 24.915 37.52 24.96 37.555 25.005C37.6 25.065 37.735 25.19 37.965 25.385C38.175 25.565 38.305 25.675 38.35 25.725C38.465 25.84 38.545 25.95 38.59 26.055C38.635 26.16 38.66 26.275 38.66 26.395C38.66 26.635 38.575 26.835 38.41 26.995C38.245 27.15 38.03 27.23 37.76 27.23C37.55 27.23 37.37 27.18 37.215 27.075C37.06 26.97 36.93 26.81 36.82 26.59L37.29 26.305C37.43 26.565 37.595 26.695 37.775 26.695C37.87 26.695 37.95 26.665 38.015 26.61C38.08 26.555 38.11 26.49 38.11 26.415C38.11 26.35 38.085 26.28 38.035 26.215C37.985 26.15 37.875 26.045 37.71 25.91C37.39 25.65 37.185 25.445 37.09 25.305C36.995 25.165 36.95 25.02 36.95 24.88C36.95 24.675 37.03 24.5 37.18 24.355C37.335 24.21 37.525 24.135 37.755 24.135C37.9 24.135 38.04 24.17 38.17 24.235C38.3 24.305 38.445 24.425 38.6 24.605" fill="white"/>
<path d="M39.2 24.21H40.8V24.76H39.755V25.29H40.8V25.83H39.755V26.605H40.8V27.155H39.2V24.21Z" fill="white"/>
<path d="M41.355 24.21H41.945C42.27 24.21 42.5 24.24 42.635 24.295C42.77 24.35 42.88 24.45 42.965 24.585C43.05 24.72 43.09 24.88 43.09 25.065C43.09 25.26 43.045 25.42 42.95 25.55C42.86 25.68 42.72 25.78 42.535 25.845L43.23 27.15H42.62L41.96 25.905H41.91V27.15H41.355V24.21ZM41.915 25.36H42.09C42.265 25.36 42.39 25.335 42.455 25.29C42.52 25.245 42.555 25.165 42.555 25.055C42.555 24.99 42.54 24.935 42.505 24.89C42.47 24.845 42.43 24.81 42.37 24.79C42.315 24.77 42.21 24.76 42.065 24.76H41.91V25.365L41.915 25.36Z" fill="white"/>
<path d="M43.46 24.21H44.035L44.77 26.3L45.52 24.21H46.09L45.035 27.155H44.5L43.46 24.21Z" fill="white"/>
<path d="M47.055 24.2151H46.5V27.1551H47.055V24.2151Z" fill="white"/>
<path d="M50.37 24.7301L49.98 25.1051C49.715 24.8251 49.415 24.6851 49.085 24.6851C48.805 24.6851 48.57 24.7801 48.38 24.9751C48.19 25.1651 48.09 25.4051 48.09 25.6851C48.09 25.8801 48.13 26.0551 48.22 26.2051C48.305 26.3551 48.425 26.4751 48.58 26.5651C48.735 26.6501 48.905 26.6951 49.095 26.6951C49.255 26.6951 49.405 26.6651 49.54 26.6051C49.675 26.5451 49.82 26.4351 49.98 26.2751L50.36 26.6701C50.145 26.8801 49.94 27.0301 49.745 27.1101C49.55 27.1901 49.335 27.2301 49.085 27.2301C48.63 27.2301 48.255 27.0851 47.97 26.7951C47.68 26.5051 47.535 26.1351 47.535 25.6801C47.535 25.3851 47.6 25.1251 47.735 24.9001C47.865 24.6701 48.055 24.4901 48.3 24.3501C48.545 24.2101 48.81 24.1401 49.095 24.1401C49.335 24.1401 49.57 24.1901 49.795 24.2951C50.02 24.4001 50.21 24.5451 50.375 24.7301" fill="white"/>
<path d="M50.86 24.21H52.455V24.76H51.41V25.29H52.455V25.83H51.41V26.605H52.455V27.155H50.86V24.21Z" fill="white"/>
<path d="M54.51 24.61L54.095 24.975C53.95 24.775 53.8 24.67 53.65 24.67C53.575 24.67 53.515 24.69 53.47 24.73C53.425 24.77 53.4 24.815 53.4 24.865C53.4 24.915 53.415 24.96 53.45 25.005C53.495 25.065 53.63 25.19 53.86 25.385C54.07 25.565 54.2 25.675 54.245 25.725C54.36 25.84 54.44 25.95 54.485 26.055C54.53 26.16 54.555 26.275 54.555 26.395C54.555 26.635 54.47 26.835 54.305 26.995C54.14 27.15 53.925 27.23 53.655 27.23C53.445 27.23 53.265 27.18 53.11 27.075C52.955 26.97 52.825 26.81 52.715 26.59L53.185 26.305C53.325 26.565 53.49 26.695 53.67 26.695C53.765 26.695 53.845 26.665 53.91 26.61C53.975 26.555 54.01 26.49 54.01 26.415C54.01 26.35 53.985 26.28 53.935 26.215C53.885 26.15 53.775 26.045 53.61 25.91C53.29 25.65 53.085 25.445 52.99 25.305C52.895 25.165 52.85 25.02 52.85 24.88C52.85 24.675 52.93 24.5 53.08 24.355C53.235 24.21 53.425 24.135 53.655 24.135C53.8 24.135 53.94 24.17 54.07 24.235C54.2 24.305 54.345 24.425 54.5 24.605" fill="white"/>
<path d="M31.86 16V32H15.93C7.13 32 0 24.835 0 16C0 7.165 7.135 0 15.935 0C24.735 0 31.865 7.165 31.865 16" fill="white"/>
<path d="M16.075 7.42997L14.965 6.31497C14.965 6.31497 14.93 6.27997 14.91 6.25997C14.71 6.04497 14.58 5.81997 14.515 5.57997C14.445 5.30997 14.455 5.02997 14.555 4.73997C14.65 4.46997 14.845 4.18497 15.155 3.86997C15.595 3.42997 16 3.19497 16.4 3.15497C16.85 3.10997 17.27 3.27497 17.615 3.62497C17.835 3.84997 17.985 4.09497 18.06 4.35997C18.135 4.63997 18.12 4.92997 18.01 5.21997C17.91 5.49497 17.71 5.77997 17.4 6.08997L16.07 7.42997H16.075ZM16.55 3.91997C16.55 3.91997 16.505 3.91997 16.48 3.91997C16.335 3.93497 16.085 4.02997 15.705 4.41497C15.425 4.69497 15.325 4.88497 15.285 4.98997C15.235 5.12997 15.23 5.25497 15.26 5.37497C15.29 5.48997 15.365 5.60997 15.48 5.73497L15.495 5.75497L16.075 6.33997L16.865 5.54497C17.145 5.26497 17.255 5.06997 17.295 4.95497C17.345 4.80997 17.355 4.67997 17.325 4.55997C17.29 4.42497 17.205 4.29497 17.08 4.16497C16.91 3.99497 16.74 3.91497 16.55 3.91497" fill="#00B2A9"/>
<path d="M14.97 6.31999C14.97 6.31999 14.925 6.27499 14.905 6.24999L15.48 5.73999L15.52 5.77999L14.97 6.31499V6.31999Z" fill="#00B2A9"/>
<path d="M26.635 17.455C26.52 17.455 26.405 17.44 26.29 17.41C26.055 17.345 25.825 17.21 25.615 17.015C25.595 17 25.58 16.98 25.56 16.965L24.45 15.85L25.78 14.51C26.09 14.2 26.37 14 26.645 13.9C26.94 13.79 27.225 13.775 27.5 13.85C27.765 13.92 28.01 14.075 28.23 14.295C28.58 14.645 28.74 15.065 28.695 15.515C28.655 15.915 28.42 16.325 27.98 16.765C27.67 17.075 27.39 17.275 27.115 17.37C26.95 17.43 26.785 17.455 26.625 17.455M25.535 15.845L26.135 16.445C26.255 16.56 26.375 16.635 26.49 16.665C26.61 16.695 26.735 16.69 26.875 16.64C26.98 16.6 27.17 16.5 27.45 16.22C27.83 15.835 27.93 15.585 27.945 15.44C27.965 15.22 27.89 15.03 27.7 14.84C27.575 14.715 27.44 14.63 27.31 14.595C27.19 14.56 27.06 14.57 26.92 14.625C26.805 14.665 26.615 14.775 26.335 15.055L25.545 15.85L25.535 15.845Z" fill="#4B4F54"/>
<path d="M15.26 28.8501C14.865 28.8501 14.495 28.6851 14.185 28.3751C13.965 28.1501 13.815 27.9051 13.74 27.6401C13.665 27.3651 13.68 27.0751 13.785 26.7801C13.885 26.5051 14.085 26.2201 14.39 25.9101L15.72 24.5701L16.83 25.6851C16.83 25.6851 16.865 25.7201 16.885 25.7401C17.085 25.9551 17.215 26.1801 17.28 26.4201C17.35 26.6901 17.34 26.9701 17.24 27.2601C17.145 27.5301 16.95 27.8151 16.64 28.1251C16.2 28.5651 15.795 28.8001 15.4 28.8401C15.355 28.8401 15.305 28.8451 15.26 28.8451M14.51 27.0401C14.46 27.1851 14.45 27.3101 14.48 27.4351C14.515 27.5701 14.6 27.7001 14.725 27.8301C14.915 28.0201 15.105 28.1001 15.325 28.0801C15.47 28.0651 15.72 27.9701 16.1 27.5851C16.38 27.3051 16.485 27.1151 16.52 27.0101C16.57 26.8701 16.575 26.7401 16.545 26.6251C16.515 26.5101 16.44 26.3901 16.325 26.2701L16.31 26.2501L15.73 25.6651L14.94 26.4601C14.66 26.7401 14.55 26.9351 14.51 27.0501" fill="#00B2A9"/>
<path d="M16.34 26.2699L16.295 26.2249L16.835 25.6799L16.88 25.7249L16.34 26.2699Z" fill="#00B2A9"/>
<path d="M4.70502 18.2599C4.59002 18.2599 4.47002 18.2449 4.36002 18.2149C4.09502 18.1399 3.85002 17.9899 3.63002 17.7699C3.28002 17.4199 3.12002 16.9999 3.16502 16.5499C3.20502 16.1499 3.44002 15.7399 3.88002 15.2999C4.19002 14.9899 4.47002 14.7899 4.74502 14.6949C5.03002 14.5949 5.31502 14.5799 5.58002 14.6549C5.81502 14.7199 6.04502 14.8549 6.25502 15.0549C6.27502 15.0699 6.29002 15.0899 6.31002 15.1049L7.42002 16.2199L6.09002 17.5599C5.78002 17.8699 5.50002 18.0699 5.22502 18.1699C5.05502 18.2349 4.88002 18.2649 4.71502 18.2649M5.23002 15.3749C5.15502 15.3749 5.07502 15.3899 4.99002 15.4199C4.88502 15.4599 4.69502 15.5599 4.41502 15.8399C4.03502 16.2199 3.93502 16.4749 3.92502 16.6199C3.90502 16.8399 3.98002 17.0299 4.17002 17.2199C4.29502 17.3449 4.43002 17.4299 4.56002 17.4649C4.68002 17.4999 4.81002 17.4899 4.95002 17.4349C5.06502 17.3949 5.25502 17.2849 5.53502 17.0049L6.32502 16.2099L5.72502 15.6099C5.60502 15.4949 5.48502 15.4199 5.37002 15.3899C5.32002 15.3749 5.27502 15.3699 5.22502 15.3699" fill="#4B4F54"/>
<path d="M5.77502 15.655L5.73502 15.615L6.24002 15.04C6.24002 15.04 6.28502 15.08 6.30502 15.1L5.77502 15.655Z" fill="#4B4F54"/>
<path d="M14.125 14.3049C13.73 14.6999 13.09 14.6999 12.695 14.3049L9.71001 11.3099C9.31501 10.9149 9.31501 10.2699 9.71001 9.87486C10.105 9.47986 10.745 9.47986 11.14 9.87486L14.125 12.8699C14.52 13.2649 14.52 13.9099 14.125 14.3049Z" fill="#00B2A9"/>
<path d="M22.01 22.195C21.615 22.59 20.975 22.59 20.58 22.195L17.595 19.2C17.2 18.805 17.2 18.16 17.595 17.765C17.99 17.37 18.63 17.37 19.025 17.765L22.01 20.76C22.405 21.155 22.405 21.8 22.01 22.195Z" fill="#00B2A9"/>
<path d="M11.415 21.8999C11.07 21.8999 10.72 21.7699 10.46 21.5049C9.935 20.9749 9.935 20.1149 10.46 19.5849L19.385 10.6199C19.91 10.0899 20.77 10.0899 21.295 10.6199C21.82 11.1499 21.82 12.0099 21.295 12.5399L12.37 21.5049C12.105 21.7699 11.76 21.8999 11.415 21.8999ZM20.34 10.9899C20.19 10.9899 20.04 11.0449 19.925 11.1599L11 20.1249C10.77 20.3549 10.77 20.7299 11 20.9599C11.23 21.1899 11.6 21.1899 11.83 20.9599L20.755 11.9949C20.985 11.7649 20.985 11.3899 20.755 11.1599C20.64 11.0449 20.49 10.9899 20.34 10.9899Z" fill="#4B4F54"/>
<path d="M15.795 12.2301C15.44 12.2301 15.08 12.0951 14.81 11.8201L10.085 7.07506C9.54002 6.53006 9.54002 5.64006 10.085 5.09506C10.35 4.83006 10.7 4.68506 11.07 4.68506C11.44 4.68506 11.795 4.83006 12.055 5.09506L16.78 9.84006C17.045 10.1051 17.19 10.4551 17.19 10.8301C17.19 11.2051 17.045 11.5551 16.78 11.8201C16.51 12.0951 16.15 12.2301 15.795 12.2301ZM11.07 5.45506C10.9 5.45506 10.745 5.52006 10.625 5.64006C10.38 5.88506 10.38 6.28506 10.625 6.53006L15.35 11.2751C15.595 11.5201 15.995 11.5201 16.24 11.2751C16.485 11.0301 16.485 10.6301 16.24 10.3801L11.515 5.63506C11.395 5.51506 11.24 5.45006 11.07 5.45006" fill="#FFB81C"/>
<path d="M20.73 27.3001C20.375 27.3001 20.015 27.1651 19.745 26.8901L15.02 22.1451C14.475 21.6001 14.475 20.7101 15.02 20.1651C15.565 19.6201 16.45 19.6201 16.99 20.1651L21.715 24.9101C21.98 25.1751 22.125 25.5251 22.125 25.9001C22.125 26.2751 21.98 26.6251 21.715 26.8901C21.445 27.1651 21.085 27.3001 20.73 27.3001ZM16.005 20.5251C15.845 20.5251 15.685 20.5851 15.56 20.7101C15.315 20.9551 15.315 21.3551 15.56 21.6001L20.285 26.3451C20.53 26.5901 20.93 26.5901 21.175 26.3451C21.295 26.2251 21.36 26.0701 21.36 25.9001C21.36 25.7301 21.295 25.5751 21.175 25.4551L16.45 20.7101C16.33 20.5851 16.165 20.5251 16.005 20.5251Z" fill="#FFB81C"/>
<path d="M25.76 12.43L21.575 16.635C21.18 17.03 20.54 17.03 20.145 16.635C19.75 16.24 19.75 15.595 20.145 15.2L24.33 10.995C24.725 10.6 25.365 10.6 25.76 10.995C26.155 11.39 26.155 12.035 25.76 12.43Z" fill="#FFB81C"/>
<path d="M11.655 16.785L7.32504 21.135C6.93004 21.53 6.29004 21.53 5.89504 21.135C5.50004 20.74 5.50004 20.095 5.89504 19.7L10.225 15.35C10.62 14.955 11.26 14.955 11.655 15.35C12.05 15.745 12.05 16.39 11.655 16.785Z" fill="#FFB81C"/>
<path d="M20.86 7.54009L19.14 9.27009C18.745 9.66509 18.105 9.66509 17.71 9.27009C17.315 8.87509 17.315 8.23009 17.71 7.83509L19.43 6.10509C19.825 5.71009 20.465 5.71009 20.86 6.10509C21.255 6.50009 21.255 7.14509 20.86 7.54009Z" fill="#4B4F54"/>
<path d="M13.94 24.3001L12.22 26.0301C11.825 26.4251 11.185 26.4251 10.79 26.0301C10.395 25.6351 10.395 24.9901 10.79 24.5951L12.51 22.8651C12.905 22.4701 13.545 22.4701 13.94 22.8651C14.335 23.2601 14.335 23.9051 13.94 24.3001Z" fill="#4B4F54"/>
<path d="M8.57501 15.0951C8.20501 15.0951 7.85001 14.9501 7.59001 14.6851L5.20501 12.2901C4.66001 11.7451 4.66001 10.8551 5.20501 10.3101C5.75001 9.76512 6.63502 9.76512 7.17502 10.3101L9.56001 12.7051C9.82502 12.9701 9.97001 13.3201 9.97001 13.6951C9.97001 14.0701 9.82502 14.4201 9.56001 14.6851C9.29501 14.9501 8.94501 15.0951 8.57501 15.0951ZM6.19502 10.6701C6.03502 10.6701 5.87501 10.7301 5.75001 10.8551C5.50501 11.1001 5.50501 11.5001 5.75001 11.7451L8.13502 14.1401C8.37002 14.3801 8.78501 14.3801 9.02501 14.1401C9.14501 14.0201 9.21002 13.8651 9.21002 13.6951C9.21002 13.5251 9.14501 13.3701 9.02501 13.2501L6.64002 10.8551C6.52002 10.7301 6.35502 10.6701 6.19502 10.6701Z" fill="#00B2A9"/>
<path d="M25.585 22.0601C25.23 22.0601 24.87 21.9251 24.6 21.6501L22.24 19.2801C21.695 18.7351 21.695 17.8451 22.24 17.3001C22.505 17.0351 22.855 16.8901 23.225 16.8901C23.595 16.8901 23.95 17.0351 24.21 17.3001L26.57 19.6701C26.835 19.9351 26.98 20.2851 26.98 20.6601C26.98 21.0351 26.835 21.3851 26.57 21.6501C26.3 21.9251 25.94 22.0601 25.585 22.0601ZM23.22 17.6601C23.05 17.6601 22.895 17.7251 22.775 17.8451C22.53 18.0901 22.53 18.4901 22.775 18.7351L25.135 21.1051C25.38 21.3501 25.78 21.3501 26.025 21.1051C26.145 20.9851 26.21 20.8301 26.21 20.6601C26.21 20.4901 26.145 20.3351 26.025 20.2151L23.665 17.8451C23.545 17.7251 23.39 17.6601 23.22 17.6601Z" fill="#00B2A9"/>
<path d="M6.67502 6.81008C6.85502 6.63008 7.04501 6.51508 7.25001 6.45508C7.45501 6.40008 7.66502 6.41508 7.89002 6.49508C8.11502 6.57508 8.36002 6.75508 8.63002 7.02508C8.90502 7.30008 9.08002 7.55008 9.16502 7.77508C9.24502 8.00008 9.26002 8.21008 9.21002 8.40508C9.16002 8.60008 9.04502 8.79008 8.86001 8.97508C8.67501 9.16008 8.48502 9.28008 8.28502 9.33508C8.08502 9.39008 7.88002 9.38008 7.66002 9.30008C7.44002 9.22508 7.20002 9.05008 6.92502 8.77508C6.54502 8.39508 6.34002 8.05008 6.31002 7.74008C6.27502 7.39508 6.40002 7.09008 6.67502 6.81008ZM7.15002 7.26508C7.07002 7.34508 7.02002 7.43508 6.99502 7.53008C6.97002 7.63008 6.99002 7.74008 7.04502 7.86508C7.10502 7.99008 7.22001 8.14008 7.39501 8.31508C7.62501 8.54508 7.82002 8.66508 7.98002 8.68008C8.14002 8.69508 8.28001 8.64008 8.39501 8.52508C8.51001 8.41008 8.55502 8.28008 8.54002 8.13008C8.52002 7.95008 8.39502 7.74008 8.16002 7.50508C7.92502 7.26508 7.72002 7.14008 7.56002 7.12008C7.39502 7.10008 7.26001 7.15008 7.14501 7.26508" fill="#4B4F54"/>
<path d="M24.415 7.475C24.595 7.655 24.71 7.845 24.765 8.05C24.82 8.255 24.805 8.47 24.725 8.69C24.645 8.915 24.465 9.16 24.195 9.435C23.92 9.71 23.67 9.89 23.45 9.97C23.225 10.05 23.015 10.07 22.825 10.015C22.63 9.965 22.445 9.85 22.26 9.665C22.075 9.48 21.955 9.29 21.905 9.09C21.85 8.89 21.865 8.685 21.94 8.465C22.015 8.245 22.19 8 22.46 7.73C22.84 7.35 23.185 7.145 23.49 7.11C23.83 7.075 24.14 7.2 24.415 7.475ZM23.96 7.95C23.88 7.87 23.795 7.82 23.695 7.795C23.595 7.77 23.485 7.79 23.365 7.845C23.24 7.905 23.09 8.02 22.915 8.2C22.685 8.43 22.565 8.625 22.55 8.785C22.535 8.945 22.59 9.085 22.705 9.205C22.82 9.32 22.95 9.365 23.1 9.35C23.28 9.33 23.49 9.205 23.72 8.97C23.955 8.73 24.085 8.53 24.1 8.365C24.115 8.2 24.07 8.06 23.955 7.945" fill="#00B2A9"/>
<path d="M9.43501 22.5199C9.61501 22.6999 9.73001 22.8899 9.78501 23.0949C9.84001 23.2999 9.82501 23.5149 9.74501 23.7349C9.66501 23.9599 9.48501 24.2049 9.21501 24.4799C8.94001 24.7549 8.69001 24.9349 8.47001 25.0149C8.24501 25.0949 8.03501 25.1149 7.84501 25.0599C7.65001 25.0099 7.46501 24.8949 7.28001 24.7099C7.09501 24.5249 6.97501 24.3349 6.92501 24.1349C6.87001 23.9349 6.88501 23.7299 6.96001 23.5099C7.03501 23.2899 7.21001 23.0449 7.48001 22.7749C7.86001 22.3949 8.20501 22.1899 8.51001 22.1549C8.85001 22.1199 9.16001 22.2449 9.43501 22.5199ZM8.98501 22.9949C8.90501 22.9149 8.82001 22.8649 8.72001 22.8399C8.62001 22.8149 8.51001 22.8349 8.39001 22.8899C8.26501 22.9499 8.12001 23.0649 7.94001 23.2449C7.71001 23.4749 7.59001 23.6699 7.57501 23.8299C7.56001 23.9899 7.61501 24.1299 7.73001 24.2499C7.84501 24.3649 7.97501 24.4099 8.12501 24.3949C8.30501 24.3749 8.51501 24.2499 8.74501 24.0149C8.98001 23.7749 9.11001 23.5749 9.12501 23.4099C9.14001 23.2449 9.09501 23.1049 8.98001 22.9899" fill="#00B2A9"/>
<path d="M22.875 23.0801C23.055 22.9001 23.245 22.7851 23.45 22.7251C23.655 22.6701 23.865 22.6851 24.09 22.7651C24.315 22.8451 24.56 23.0251 24.83 23.2951C25.105 23.5701 25.28 23.8201 25.365 24.0451C25.445 24.2701 25.46 24.4801 25.41 24.6751C25.36 24.8701 25.245 25.0601 25.06 25.2451C24.875 25.4301 24.685 25.5501 24.485 25.6051C24.285 25.6601 24.08 25.6501 23.86 25.5701C23.64 25.4951 23.4 25.3201 23.125 25.0451C22.745 24.6651 22.54 24.3201 22.51 24.0101C22.475 23.6651 22.6 23.3601 22.875 23.0801ZM23.35 23.5351C23.27 23.6151 23.22 23.7051 23.195 23.8001C23.17 23.9001 23.19 24.0101 23.245 24.1351C23.305 24.2601 23.42 24.4101 23.595 24.5851C23.825 24.8151 24.02 24.9351 24.18 24.9501C24.34 24.9651 24.48 24.9101 24.595 24.7951C24.71 24.6801 24.755 24.5501 24.74 24.4001C24.72 24.2201 24.595 24.0101 24.36 23.7751C24.125 23.5351 23.92 23.4101 23.76 23.3901C23.595 23.3701 23.46 23.4201 23.345 23.5351" fill="#4B4F54"/>
</svg>
