<svg width="200" height="53" viewBox="0 0 200 53" fill="none" xmlns="http://www.w3.org/2000/svg">
<path d="M14.4541 0.0999756H39.2541L35.5541 9.39999H20.4541L15.7541 20.9H30.7541L27.1541 29.8C27.1541 29.8 12.5541 29.8 3.95413 29.8C1.35413 29.8 -0.74587 27.1 0.25413 24.3C0.65413 23.3 7.45412 6.69998 8.65412 4.09998C9.65412 1.89998 12.2541 0.1 14.5541 0" fill="#02B2A8"/>
<path d="M40.7541 0.0999756H54.2541C54.2541 0.0999756 54.2541 0.0999817 54.3541 0.199982L50.2541 10.4H65.4541L61.5541 19.5H46.4541C45.0541 22.6 43.6541 26.4 43.1541 27.5C42.8541 28.3 42.7541 28.6 42.5541 29.1C42.5541 29.4 42.3541 29.9 42.9541 29.9C43.6541 29.9 43.8541 29.2 44.0541 28.6C45.4541 25.2 45.9541 24 47.2541 20.9H60.8541C60.8541 20.9 56.4541 31.3 56.0541 32.3C54.9541 35.1 53.6541 36.8 51.3541 38.2C50.4541 38.7 49.8541 38.8 48.8541 38.9C41.9541 38.9 40.2541 38.9 32.3541 38.9C31.4541 38.9 29.4541 38.8 28.6541 37.9C27.6541 36.9 27.2541 36.1 26.9541 34.6C26.6541 32.9 27.3541 31.7 27.8541 30.3C29.6541 26.1 32.3541 19.5 32.3541 19.5C31.1541 19.5 17.4541 19.5 17.4541 19.5C17.4541 19.5 17.4541 19.5 17.3541 19.4L21.0541 10.5H36.2541L40.5541 0.0999756H40.7541Z" fill="#14A2DD"/>
<path d="M16.5537 44.5996H12.4541C11.9542 44.6996 11.5545 44.8 11.3545 45.2998V45.5C10.6545 46.8999 10.3538 47.6997 9.75391 49.0996C9.65391 49.3996 9.55371 49.6004 9.55371 49.9004C9.45395 50.1002 9.45446 50.3005 9.6543 50.4004H11.9541C11.9541 50.1004 12.0543 49.8 12.1543 49.5C12.5542 48.5002 12.4543 48.6 12.9541 47.4004C13.554 46.2005 14.2539 45.8 14.7539 45.5C15.1539 45.2 16.3545 45.2002 16.3545 45.2002H21.2539C21.2406 45.2313 20.0494 48.0097 19.2539 49.7002C19.154 49.9003 19.0544 50.4001 19.5537 50.4004L19.4541 50.5H19.9541L23.5537 42.2998H26.0537L21.6543 52.7002H18.8545C18.3545 52.7002 18.1537 52.5998 17.5537 52.2998C16.954 51.8998 16.7539 51.2998 16.7539 51.2998C16.7509 51.3028 16.4527 51.6023 16.1543 52.0996C15.857 52.6942 15.1666 52.7001 15.1543 52.7002H9.1543C7.35469 52.7002 6.95428 51.5005 6.9541 50.9004C6.9541 50.5037 7.15106 49.7132 7.1543 49.7002C7.1543 49.7002 8.65406 46.1005 9.4541 44.4004C10.2541 42.7004 11.6543 42.2998 13.1543 42.2998H17.5537L16.5537 44.5996ZM42.4541 44.9004C42.4388 44.936 41.2492 47.7113 40.5537 49.4004C40.4538 49.6007 40.3549 50.0996 40.8545 50.0996H41.4541L43.7539 44.9004H48.0537C48.0537 44.9004 48.8545 44.9996 49.3545 45.5996C49.7545 46.2996 49.9539 46.9 49.7539 47.5C49.4539 48.1 49.2541 48.6004 48.9541 49.4004C48.8542 49.6006 48.7544 50.0995 49.2539 50.0996H52.5537C52.5537 50.0996 53.554 50.2 53.9541 49.4004V49.2002H49.9541L51.0537 46.7002C51.0537 46.7002 51.2539 46.1999 52.0537 45.5C52.4536 45.2001 53.1536 45.0001 53.5537 45H58.3545L57.4541 47H54.1543C54.1543 47 53.4544 47.0999 53.1543 47.5996C52.857 48.0952 53.0502 47.805 53.0537 47.7998H57.1543L55.9541 50.5C55.9525 50.5037 55.5517 51.4014 54.5537 51.9004C53.7664 52.3377 53.2087 52.4692 52.6797 52.4951L52.4541 52.2998H49.4541C47.8542 52.2998 47.0543 51.8 46.6543 51C46.3543 50.2 46.6543 49.2998 46.6543 49.2998C46.6628 49.28 47.2555 47.8971 47.4541 47.5C47.6501 47.1079 47.3658 47.0998 47.3545 47.0996H45.4541L43.1543 52.2998C43.1543 52.2998 40.8552 52.2998 40.3545 52.2998C39.8545 52.2998 39.6537 52.3004 39.0537 51.9004C38.4614 51.5055 38.2589 50.9153 38.2539 50.9004C38.243 50.9114 37.9487 51.2095 37.6543 51.7002C37.357 52.2947 36.6667 52.2998 36.6543 52.2998C36.6543 52.2998 36.3539 52.2998 35.2539 52.2998C34.1541 52.2997 33.8537 51.6996 33.5537 51.0996C33.2541 50.4998 33.3539 49.7001 33.5537 49.2002C33.9537 48.2002 33.8545 48.2996 34.3545 47.0996C34.9544 45.8999 35.6544 45.5002 36.1543 45.2002C36.5511 44.9026 37.735 44.9004 37.7539 44.9004H42.4541ZM28.9541 45.0996H31.0537L30.2539 47.2998H27.9541C27.9541 47.2998 26.955 49.4988 26.8545 49.7998C26.6545 50.2998 27.3545 50.4004 27.3545 50.4004H28.9541C28.9541 50.4004 29.554 49.0002 30.2539 47.4004C30.8539 46.0005 31.7539 45.5998 32.2539 45.2998C32.7472 45.1025 33.5328 45.0996 33.5537 45.0996H35.1543L34.2539 47.2002H33.3545C32.7621 47.2002 32.3645 48.0772 32.3545 48.0996H32.5537L30.6543 52.4004H26.6543C25.3543 52.4004 24.7537 51.2996 24.5537 50.5996C24.354 49.9997 24.6543 49.2998 24.6543 49.2998L25.5537 47.2998H24.4541L25.3545 45.0996H26.3545L27.6543 42.0996H30.1543L28.9541 45.0996ZM15.8545 47.2998C15.4545 47.2998 15.2537 47.6004 15.0537 47.9004C14.854 48.1004 14.7542 48.4004 14.6543 48.7002C14.5543 49.2001 14.3545 49.4004 14.3545 49.9004C14.3583 49.9155 14.4582 50.2998 14.6543 50.2998H16.7539C16.4545 49.9993 17.254 48.4995 17.7539 47.2998H15.8545ZM37.2539 47.2998C36.8541 47.2999 36.6541 47.6004 36.4541 47.9004C36.2542 48.1004 36.1537 48.4003 36.0537 48.7002C35.9537 49.2 35.7539 49.4005 35.7539 49.9004C35.7571 49.9131 35.8573 50.2992 36.0537 50.2998H38.1543C37.8543 49.9998 38.6543 48.4998 39.1543 47.2998H37.2539ZM60.0537 44.9004C60.6537 44.9004 61.1543 45.4 61.1543 46C61.1543 46.6 60.6537 47.0996 60.0537 47.0996C59.4539 47.0994 58.9541 46.5999 58.9541 46C58.9541 45.4001 59.4539 44.9006 60.0537 44.9004ZM60.1543 45.0996C59.6543 45.0996 59.2539 45.5 59.2539 46C59.2539 46.5 59.6543 46.9004 60.1543 46.9004C60.3699 46.9004 60.5664 46.8249 60.7207 46.7002H60.5537L60.2539 46.0996H60.0537V46.7002L59.8545 46.5996H59.6543V45.2998H60.1543C60.4542 45.2998 60.6543 45.4002 60.6543 45.7002C60.6543 45.9998 60.5542 45.9998 60.3545 46.0996L60.7412 46.6816C60.9325 46.5171 61.0537 46.2743 61.0537 46C61.0537 45.5001 60.6542 45.0997 60.1543 45.0996ZM59.8545 45.9004H60.1543C60.3541 45.9004 60.454 45.8999 60.4541 45.7002C60.4541 45.5002 60.3542 45.5 60.1543 45.5H59.8545V45.9004Z" fill="#010101"/>
<path d="M66.0541 11.2C66.0541 10.6 66.5541 10.1 67.1541 10.1C67.7541 10.1 68.2542 10.6 68.2542 11.2C68.2542 11.8 67.7541 12.3 67.1541 12.3C66.5541 12.3 66.0541 11.8 66.0541 11.2ZM67.1541 12.1C67.6541 12.1 68.0541 11.7 68.0541 11.2C68.0541 10.7 67.6541 10.3 67.1541 10.3C66.6541 10.3 66.2542 10.7 66.2542 11.2C66.2542 11.7 66.6541 12.1 67.1541 12.1ZM66.9542 11.9H66.7542V10.6H67.2542C67.5542 10.6 67.7542 10.7 67.7542 11C67.7542 11.3 67.6542 11.3 67.4542 11.4L67.8542 12H67.6541L67.3542 11.4H67.1541V12L66.9542 11.9ZM67.1541 11.1C67.3541 11.1 67.4542 11.1 67.4542 10.9C67.4542 10.7 67.3541 10.7 67.1541 10.7H66.8542V11.1H67.0541H67.1541Z" fill="#010101"/>
<path d="M169.054 39.6996C169.554 39.6996 169.854 39.7004 170.154 40.0004C170.454 40.3002 170.854 40.3998 171.054 40.6996L170.755 41.1C170.355 40.6001 169.854 40.3999 169.255 40.3998C168.655 40.3998 168.454 40.5999 168.054 40.8998C167.754 41.1998 167.554 41.6 167.554 42.1C167.554 42.6 167.555 42.7004 167.755 43.0004C167.855 43.2002 168.054 43.4001 168.354 43.6C168.654 43.7999 168.854 43.8002 169.154 43.8002C169.454 43.8002 169.654 43.7996 169.854 43.6996C170.054 43.6996 170.354 43.3996 170.554 43.1996L171.154 43.8002C170.754 44.1001 170.454 44.4004 170.154 44.5004C169.854 44.6003 169.454 44.6996 169.054 44.6996C168.355 44.6996 167.655 44.5001 167.255 44.0004C166.755 43.5004 166.554 42.8996 166.554 42.1996C166.554 41.4999 166.654 41.2997 166.854 40.8998C167.054 40.4999 167.355 40.2003 167.755 40.0004C168.154 39.8004 168.554 39.6996 169.054 39.6996ZM150.755 39.3002C151.054 39.3002 151.254 39.3005 151.454 39.5004C151.654 39.6004 151.954 39.8 152.154 40.1L151.454 40.8998C151.254 40.6002 150.954 40.4 150.755 40.3998H150.454C150.45 40.4032 150.354 40.5017 150.354 40.6V40.8002C150.36 40.8061 150.658 41.1028 151.054 41.3998C151.354 41.6998 151.654 41.9004 151.654 42.0004C151.854 42.2003 151.954 42.4004 152.054 42.5004C152.054 42.7002 152.154 42.9001 152.154 43.1C152.154 43.4999 152.054 43.8 151.755 44.1C151.455 44.4 151.154 44.5004 150.654 44.5004C150.154 44.5004 150.054 44.4995 149.755 44.1996C149.455 43.9996 149.254 43.7998 149.054 43.3998L149.854 42.8998C150.054 43.2997 150.354 43.5003 150.654 43.5004C150.954 43.5004 150.954 43.4998 151.054 43.3998C151.154 43.3995 151.255 43.1999 151.255 43.1C151.255 43 151.254 42.9002 151.154 42.8002C151.154 42.7002 150.854 42.5002 150.654 42.3002C150.154 41.9002 149.754 41.5002 149.654 41.3002C149.454 41.1002 149.454 40.8 149.454 40.6C149.454 40.3 149.554 39.9996 149.854 39.6996C150.154 39.4996 150.455 39.3002 150.755 39.3002ZM176.755 39.3002C177.054 39.3002 177.254 39.3005 177.454 39.5004C177.654 39.6004 177.954 39.8 178.154 40.1L177.454 40.8998C177.254 40.6002 176.954 40.4 176.755 40.3998H176.454C176.45 40.4032 176.354 40.5017 176.354 40.6V40.8002C176.36 40.8061 176.658 41.1028 177.054 41.3998C177.354 41.6998 177.654 41.9004 177.654 42.0004C177.854 42.2003 177.954 42.4004 178.054 42.5004C178.054 42.7002 178.154 42.9001 178.154 43.1C178.154 43.4999 178.054 43.8 177.755 44.1C177.455 44.4 177.154 44.5004 176.654 44.5004C176.154 44.5004 176.054 44.4995 175.755 44.1996C175.455 43.9996 175.254 43.7998 175.054 43.3998L175.854 42.8998C176.054 43.2997 176.354 43.5003 176.654 43.5004C176.954 43.5004 176.954 43.4998 177.054 43.3998C177.154 43.3995 177.255 43.1999 177.255 43.1C177.255 43 177.254 42.9002 177.154 42.8002C177.154 42.7002 176.854 42.5002 176.654 42.3002C176.154 41.9002 175.754 41.5002 175.654 41.3002C175.454 41.1002 175.454 40.8 175.454 40.6C175.454 40.3 175.554 39.9996 175.854 39.6996C176.154 39.4996 176.455 39.3002 176.755 39.3002ZM155.654 40.5004H153.954V41.3998H155.654V42.3002H153.954V43.5004H155.654V44.3998H153.054V39.6H155.654V40.5004ZM157.654 39.6C158.154 39.6 158.555 39.5996 158.755 39.6996C158.954 39.7 159.155 39.9997 159.255 40.1996C159.355 40.3996 159.454 40.7004 159.454 41.0004C159.454 41.3002 159.454 41.6003 159.255 41.8002C159.055 42.0001 158.854 42.2002 158.554 42.3002L159.654 44.3998H158.654L157.554 42.3998V44.3998H156.654V39.6H157.654ZM162.154 43.0004L163.454 39.6H164.354L162.654 44.3998H161.755L160.054 39.6H160.954L162.154 43.0004ZM165.954 44.3998H165.054V39.6H165.954V44.3998ZM174.755 40.5004H173.054V41.3998H174.755V42.3002H173.054V43.5004H174.755V44.3998H172.154V39.6H174.755V40.5004ZM158.454 40.5004C158.354 40.4004 158.154 40.5004 157.954 40.5004H157.755V41.5004H157.854C158.154 41.5004 158.354 41.4997 158.454 41.3998C158.554 41.3998 158.654 41.2002 158.654 41.0004V40.6996C158.648 40.6936 158.551 40.5972 158.454 40.5004ZM184.255 32.3998C185.054 32.3998 185.054 32.4002 185.454 32.6C185.754 32.7 186.054 33.0002 186.354 33.3002L185.654 33.8002C185.254 33.4003 184.754 33.1997 184.255 33.1996C183.755 33.1996 183.354 33.3998 183.054 33.6996C182.754 33.9996 182.554 34.4002 182.554 34.8002C182.554 35.2001 182.754 35.7004 183.054 36.0004C183.354 36.3002 183.755 36.5004 184.255 36.5004C184.754 36.5004 184.854 36.5001 185.054 36.3002C185.254 36.2002 185.454 35.9995 185.554 35.6996H184.154V34.8002H186.554V35.0004C186.554 35.4001 186.454 35.7999 186.255 36.1996C186.055 36.5996 185.754 36.9 185.454 37.1C185.154 37.2998 184.654 37.3997 184.255 37.3998C183.855 37.3998 183.354 37.3 182.954 37.1C182.554 36.9 182.254 36.5995 182.054 36.1996C181.854 35.7997 181.755 35.3997 181.755 34.8998C181.755 34.3998 181.954 33.6995 182.354 33.1996C182.854 32.5998 183.455 32.3998 184.255 32.3998ZM161.354 33.3998H160.554V37.3002H159.554V33.3998H158.755V32.3998H161.354V33.3998ZM170.354 32.6996C170.754 32.6996 171.055 32.8004 171.255 33.0004C171.454 33.2002 171.554 33.4997 171.554 33.6996C171.554 33.8996 171.554 34.0996 171.454 34.1996C171.454 34.3996 171.154 34.5998 170.854 34.8998C171.254 35.3998 171.454 35.6002 171.654 35.8002C171.654 35.8002 171.854 35.5998 172.154 35.3998L172.354 36.0004L172.154 36.1996L171.954 36.3998L172.755 37.1996H171.654L171.354 36.8998C170.854 37.1998 170.354 37.3002 169.954 37.3002C169.554 37.3001 169.254 37.2001 169.054 37.0004C168.854 36.8004 168.755 36.4996 168.755 36.1996C168.755 35.9 168.754 35.7002 168.954 35.5004C169.054 35.3004 169.254 35.0002 169.654 34.8002C169.354 34.4002 169.154 33.9996 169.154 33.6996C169.154 33.4 169.254 33.2002 169.454 33.0004C169.654 32.8004 169.954 32.6996 170.354 32.6996ZM191.454 33.3998H190.554V37.3002H189.654V33.3998H188.755V32.3998H191.454V33.3998ZM197.954 36.3998H199.255V37.3002H196.954V32.3998H197.954V36.3998ZM150.755 32.3998C151.454 32.3998 151.954 32.3998 152.354 32.6996C152.654 32.8996 152.954 33.2004 153.154 33.5004C153.354 33.9002 153.454 34.3 153.454 34.8998C153.454 35.4996 153.454 35.6 153.255 35.8998C153.155 36.1996 152.954 36.4996 152.755 36.6996C152.555 36.8995 152.354 37 152.054 37.1C151.754 37.1 151.354 37.1995 150.755 37.1996H149.654V32.3998H150.755ZM158.454 37.1996H157.554L157.154 36.1996H155.154L154.755 37.1996H153.854L155.654 32.3998H156.654L158.454 37.1996ZM166.154 37.1996H165.255L164.854 36.1996H162.854L162.454 37.1996H161.554L163.354 32.3998H164.354L166.154 37.1996ZM176.354 32.3998C177.054 32.3998 177.554 32.3999 177.954 32.6996C178.254 32.8996 178.555 33.2004 178.755 33.5004C178.954 33.9002 179.054 34.3001 179.054 34.8998C179.054 35.4997 179.054 35.5999 178.854 35.8998C178.754 36.1997 178.554 36.4996 178.354 36.6996C178.154 36.8996 177.954 37 177.654 37.1C177.354 37.1 176.954 37.1996 176.354 37.1996H175.255V32.3998H176.354ZM180.755 37.1996H179.854V32.3998H180.755V37.1996ZM188.255 37.1996H187.354V32.3998H188.255V37.1996ZM196.255 37.1996H195.354L194.954 36.1996H192.954L192.554 37.1996H191.654L193.454 32.3998H194.454L196.255 37.1996ZM169.954 35.5004C169.654 35.8 169.454 35.9998 169.454 36.1996C169.454 36.3996 169.454 36.4004 169.554 36.5004C169.563 36.5048 169.756 36.6 169.854 36.6C170.054 36.6 170.254 36.6002 170.554 36.3002L170.341 35.975C170.229 35.85 170.104 35.7003 169.954 35.5004ZM150.554 36.3002H150.954C151.354 36.3002 151.654 36.2996 151.854 36.1996C152.054 36.1996 152.154 35.8996 152.354 35.6996C152.454 35.4996 152.554 35.1996 152.554 34.8998C152.554 34.3999 152.454 33.9995 152.154 33.6996C151.854 33.3998 151.454 33.3002 150.954 33.3002H150.554V36.3002ZM176.154 36.3002H176.554C176.954 36.3002 177.254 36.2995 177.454 36.1996C177.654 36.1996 177.754 35.8996 177.954 35.6996C178.054 35.4996 178.154 35.1997 178.154 34.8998C178.154 34.3999 178.054 33.9995 177.755 33.6996C177.455 33.3996 177.054 33.3002 176.554 33.3002H176.154V36.3002ZM155.654 35.3998H156.954L156.354 33.6996H156.255L155.654 35.3998ZM163.354 35.3998H164.654L164.054 33.6996H163.954L163.354 35.3998ZM193.354 35.3998H194.654L194.054 33.6996H193.954L193.354 35.3998ZM170.054 33.6996C170.054 33.8809 170.055 33.9799 170.204 34.1459C170.343 33.9971 170.454 33.8484 170.454 33.6996V33.5004H170.054V33.6996ZM193.255 7.80017C194.754 7.80021 195.254 8.00041 196.154 8.50037C197.054 9.00037 198.054 9.80037 199.054 11.0004L196.255 13.6C195.255 12.2002 194.254 11.5006 193.255 11.5004C192.255 11.5004 192.354 11.5999 192.054 11.8998C191.754 12.1998 191.554 12.5002 191.554 12.8002C191.554 13.1002 191.654 13.5002 191.854 13.8002C192.154 14.2002 193.054 15.1 194.654 16.3998C196.154 17.5998 196.955 18.3996 197.255 18.6996C198.054 19.4995 198.554 20.1998 198.854 20.8998C199.154 21.5997 199.354 22.3997 199.354 23.1996C199.354 24.8996 198.754 26.2002 197.654 27.3002C196.554 28.4 195.054 28.8997 193.255 28.8998C191.455 28.8998 190.554 28.5001 189.554 27.8002C188.454 27.1002 187.554 26.0002 186.854 24.5004L190.054 22.6C191.054 24.3999 192.154 25.3002 193.354 25.3002C194.554 25.3002 194.554 25.0996 194.954 24.6996C195.354 24.2996 195.654 23.8998 195.654 23.3998C195.654 22.8999 195.454 22.5002 195.154 22.0004C194.854 21.5004 194.054 20.7998 192.954 19.8998C190.754 18.1001 189.355 16.7001 188.755 15.8002C188.155 14.8002 187.755 13.8998 187.755 12.8998C187.755 11.4999 188.254 10.3001 189.354 9.30017C190.454 8.30017 191.755 7.80017 193.255 7.80017ZM153.954 8.30017C156.853 8.30017 159.054 8.6999 160.454 9.39978C161.854 10.0997 163.054 11.2999 163.954 12.8998C164.854 14.4998 165.354 16.4 165.354 18.6C165.354 20.7998 165.054 21.5999 164.554 22.8998C164.054 24.1998 163.354 25.3 162.454 26.1C161.554 26.9998 160.554 27.4998 159.554 27.8998C158.454 28.1998 156.654 28.3998 154.054 28.3998H149.454V8.30017H153.954ZM173.554 8.30017C176.454 8.30019 178.654 8.6998 180.054 9.39978C181.454 10.0998 182.654 11.2998 183.554 12.8998C184.454 14.4998 184.954 16.4 184.954 18.6C184.954 20.7999 184.654 21.5999 184.154 22.8998C183.654 24.1997 182.954 25.3 182.054 26.1C181.154 27 180.154 27.4998 179.154 27.8998C178.054 28.1998 176.254 28.3998 173.654 28.3998H169.054V8.30017H173.554ZM153.255 24.6996H155.054C156.754 24.6996 158.054 24.5 158.854 24.1C159.654 23.7 160.255 23 160.755 22.1C161.254 21.2 161.454 19.9999 161.454 18.6C161.454 16.5 160.854 14.8 159.654 13.6C158.554 12.5 156.854 12.0004 154.454 12.0004H153.255V24.6996ZM172.755 24.6996H174.554C176.254 24.6996 177.554 24.5 178.354 24.1C179.154 23.7 179.755 23 180.255 22.1C180.754 21.2 180.954 19.9999 180.954 18.6C180.954 16.5 180.354 14.8 179.154 13.6C178.054 12.5 176.354 12.0004 173.954 12.0004H172.755V24.6996Z" fill="#010101"/>
<path d="M141.054 26.3V52.5H114.954C100.554 52.5 88.8541 40.8 88.8541 26.3C88.8541 11.8 100.554 0.0999756 114.954 0.0999756C129.354 0.0999756 141.054 11.8 141.054 26.3Z" fill="#4C5055"/>
<path d="M113.555 33.1C114.455 32.2003 115.854 32.2002 116.754 33.1L124.454 40.8998C124.854 41.2998 125.154 41.9004 125.154 42.5004C125.154 43.1002 124.954 43.7001 124.454 44.1C124.054 44.4999 123.454 44.8001 122.854 44.8002C122.254 44.8002 121.654 44.6 121.254 44.1L113.555 36.3002C112.655 35.4002 112.655 34 113.555 33.1ZM114.946 33.7045C114.704 33.7263 114.529 33.8253 114.354 34.0004C113.954 34.4004 113.954 35.1004 114.354 35.5004L122.055 43.3002C122.455 43.6999 123.155 43.7001 123.555 43.3002C123.754 43.1002 123.854 42.7999 123.854 42.6C123.854 42.4 123.754 42.0998 123.555 41.8998L115.854 34.1C115.654 33.9 115.354 33.8002 115.154 33.8002L114.946 33.7045ZM105.654 25.1996C106.254 24.5999 107.354 24.5999 107.954 25.1996C108.554 25.7996 108.554 26.9 107.954 27.6L100.854 34.6996C100.254 35.2996 99.1546 35.2995 98.5546 34.6996C97.9546 34.0996 97.9546 33.0002 98.5546 32.3002L105.654 25.1996ZM128.754 18.1C129.354 17.5 130.455 17.5 131.055 18.1C131.654 18.7 131.654 19.8005 131.055 20.5004L124.154 27.3998C123.554 27.9998 122.454 27.9998 121.854 27.3998C121.254 26.7998 121.254 25.7004 121.854 25.0004L128.754 18.1ZM107.055 7.69958C107.654 7.69968 108.254 7.89998 108.654 8.39978L116.354 16.1996C116.754 16.5996 117.055 17.2002 117.055 17.8002C117.055 18.4 116.854 18.9998 116.354 19.3998C115.954 19.7998 115.354 20.1 114.754 20.1C114.154 20.0999 113.554 19.8997 113.154 19.3998L105.454 11.6C104.554 10.7 104.554 9.29975 105.454 8.39978C105.854 7.99979 106.455 7.69958 107.055 7.69958ZM106.847 9.00427C106.604 9.02606 106.429 9.12506 106.254 9.30017C105.854 9.70019 105.854 10.4002 106.254 10.8002L113.954 18.6C114.354 18.9999 115.054 18.9999 115.454 18.6C115.854 18.2 115.854 17.5 115.454 17.1L107.754 9.30017C107.554 9.10037 107.255 9.00051 107.055 9.00037L106.847 9.00427Z" fill="#FDB71D"/>
<path d="M116.354 42.1C116.654 42.3999 116.854 42.7998 116.954 43.1996C117.054 43.5996 116.954 44.1 116.954 44.6C116.754 45 116.454 45.5004 115.954 46.0004C115.254 46.7002 114.554 47.0996 113.954 47.1996H113.754L113.629 47.2865C113.104 47.2222 112.579 46.9376 112.055 46.5004C111.655 46.1004 111.454 45.7001 111.354 45.3002C111.254 44.8002 111.354 44.3998 111.354 43.8998C111.554 43.4998 111.854 43.0002 112.354 42.5004L114.555 40.3002L116.354 42.1ZM113.354 43.3998C112.854 43.8996 112.754 44.1998 112.654 44.3998C112.654 44.5998 112.554 44.8004 112.654 45.0004C112.654 45.2002 112.855 45.4001 113.055 45.6C113.354 45.8998 113.655 46.0004 114.055 46.0004C114.255 46.0001 114.655 45.7992 115.354 45.1996C115.854 44.6998 115.955 44.4002 116.055 44.3002V43.6996C116.054 43.4997 115.854 43.2998 115.654 43.1L114.654 42.1L113.354 43.3998ZM102.954 36.3998C103.554 36.3998 104.054 36.5004 104.454 37.0004L104.56 37.225C104.748 37.4499 104.879 37.6749 104.954 37.8998V39.0004C104.854 39.4001 104.554 39.7998 104.055 40.1996C103.655 40.6995 103.154 40.9 102.854 41.1C102.554 41.2999 102.154 41.2999 101.854 41.1C101.554 41.1 101.254 40.8003 100.954 40.5004C100.654 40.2004 100.454 39.9 100.354 39.6V38.6C100.454 38.2 100.754 37.7997 101.254 37.3998C101.854 36.7999 102.454 36.3999 102.954 36.3998ZM102.654 37.5004C102.454 37.5004 102.254 37.8 101.954 38.1C101.554 38.4999 101.354 38.8 101.354 39.1C101.354 39.4 101.354 39.6002 101.654 39.8002C101.854 40 102.054 40.1 102.254 40.0004C102.554 40.0004 102.854 39.7997 103.254 39.3998C103.654 38.9998 103.854 38.6998 103.854 38.3998C103.854 38.0999 103.854 37.8995 103.654 37.6996L103.464 37.725C103.361 37.65 103.229 37.5753 103.154 37.5004H102.654ZM117.754 29.1C118.354 28.5 119.455 28.5 120.055 29.1L124.954 34.0004C125.554 34.6004 125.554 35.6998 124.954 36.3998C124.354 36.9998 123.254 36.9998 122.654 36.3998L117.754 31.5004C117.154 30.8004 117.154 29.8 117.754 29.1ZM126.854 27.6996C127.454 27.6996 128.054 27.9 128.454 28.3998L132.354 32.3002C132.754 32.7001 133.054 33.2999 133.055 33.8998C133.055 34.4998 132.854 35.1004 132.354 35.5004C131.954 35.9003 131.354 36.1996 130.754 36.1996C130.154 36.1995 129.554 36.0001 129.154 35.5004L125.254 31.6C124.354 30.7 124.354 29.2997 125.254 28.3998C125.654 27.9998 126.254 27.6996 126.854 27.6996ZM126.846 29.0043C126.604 29.0261 126.429 29.1251 126.254 29.3002C125.854 29.7002 125.854 30.4002 126.254 30.8002L130.154 34.6996C130.554 35.0996 131.254 35.0996 131.654 34.6996C131.854 34.4997 131.954 34.2003 131.954 34.0004C131.954 33.8004 131.854 33.5002 131.654 33.3002L127.754 29.3998C127.554 29.2001 127.254 29.1001 127.055 29.1L126.846 29.0043ZM97.4539 17.0004C98.3539 16.1004 99.7541 16.1004 100.654 17.0004L104.555 20.8998C104.954 21.2998 105.254 21.9004 105.254 22.5004C105.254 23.1001 105.054 23.7001 104.555 24.1C104.155 24.5 103.554 24.8002 102.954 24.8002C102.354 24.8001 101.754 24.5999 101.354 24.1L97.4539 20.1996C96.5543 19.2997 96.5543 17.9003 97.4539 17.0004ZM104.854 16.1996C105.454 15.5999 106.554 15.5999 107.154 16.1996L112.055 21.1C112.654 21.7 112.654 22.8005 112.055 23.5004C111.455 24.1004 110.354 24.1004 109.754 23.5004L104.854 18.6C104.254 18 104.254 16.8996 104.854 16.1996ZM98.9461 17.6049C98.7042 17.6267 98.5292 17.7249 98.3543 17.8998C97.9543 18.2998 97.9543 18.9998 98.3543 19.3998L102.254 23.3002C102.654 23.7001 103.354 23.6999 103.754 23.3002C103.954 23.1002 104.055 22.8 104.055 22.6C104.055 22.4 103.954 22.0998 103.754 21.8998L99.8543 18.0004C99.6543 17.8004 99.3541 17.6996 99.1541 17.6996L98.9461 17.6049ZM127.454 11.6996C128.054 11.6996 128.554 11.8002 128.954 12.3002L129.06 12.5248C129.248 12.7497 129.379 12.9747 129.454 13.1996V14.3002C129.354 14.7001 129.054 15.1005 128.555 15.5004C128.155 16.0002 127.654 16.1998 127.354 16.3998C127.054 16.5998 126.654 16.5998 126.354 16.3998C126.054 16.3998 125.754 16.1002 125.454 15.8002C125.154 15.5002 124.954 15.1998 124.854 14.8998V13.8998C124.954 13.4999 125.254 13.0995 125.754 12.6996C126.354 12.0997 126.954 11.6997 127.454 11.6996ZM127.254 12.8002C127.054 12.8006 126.854 13.1001 126.555 13.3998C126.155 13.7997 125.954 14.0999 125.954 14.3998C125.954 14.6997 125.954 14.9 126.254 15.1C126.454 15.3 126.654 15.4002 126.854 15.3002C127.154 15.3001 127.454 15.0995 127.854 14.6996C128.254 14.2997 128.454 13.9995 128.454 13.6996C128.454 13.3998 128.454 13.2003 128.254 13.0004L128.063 13.0248C127.96 12.9498 127.829 12.8751 127.754 12.8002H127.254ZM115.854 5.39978C116.554 5.39982 117.254 5.59972 117.854 6.19958C118.254 6.59955 118.454 6.99982 118.555 7.39978C118.655 7.89978 118.555 8.30017 118.555 8.80017C118.355 9.30003 118.054 9.69978 117.555 10.1996L115.354 12.3998L115.254 12.3002L113.454 10.5004C113.154 10.2004 112.954 9.79978 112.854 9.39978C112.754 8.9999 112.854 8.50018 112.854 8.00037C113.054 7.60037 113.354 7.09998 113.854 6.59998C114.554 5.90003 115.254 5.49978 115.854 5.39978ZM115.854 6.50037C115.654 6.50037 115.254 6.70027 114.555 7.30017C114.055 7.79968 113.954 8.09929 113.854 8.19958V8.80017C113.854 9.00001 114.054 9.19994 114.254 9.39978L115.254 10.3998L116.555 9.09998C117.054 8.60023 117.154 8.29995 117.254 8.09998C117.254 7.90002 117.354 7.70032 117.254 7.50037C117.254 7.30037 117.054 7.09978 116.854 6.89978C116.554 6.59979 116.254 6.50037 115.954 6.50037H115.854Z" fill="#02B2A8"/>
<path d="M109.454 37.5003C110.054 36.9003 111.155 36.9003 111.755 37.5003C112.354 38.1003 112.354 39.1998 111.755 39.8997L108.954 42.6995C108.354 43.3995 107.254 43.3995 106.654 42.6995C106.054 42.0995 106.054 41 106.654 40.3001L109.454 37.5003ZM128.255 37.3001C128.654 37.4002 129.054 37.7 129.454 38.1995C129.854 38.6994 130.154 39.0997 130.354 39.3997C130.454 39.7996 130.554 40.0998 130.354 40.3997C130.354 40.6997 130.054 41.0002 129.755 41.3001C129.455 41.6001 129.154 41.7997 128.854 41.8997H127.854C127.454 41.7997 127.054 41.5002 126.654 41.0003C126.054 40.4004 125.654 39.8001 125.654 39.3001C125.654 38.7001 125.755 38.2001 126.255 37.8001L126.579 37.6937C126.804 37.5061 127.029 37.3751 127.255 37.3001H128.255ZM127.755 38.3001C127.455 38.3001 127.254 38.3003 127.054 38.5003L127.079 38.6907C127.004 38.7938 126.929 38.9254 126.854 39.0003V39.5003C126.854 39.7001 127.154 39.8999 127.454 40.1995C127.854 40.5993 128.154 40.7999 128.454 40.8001C128.754 40.8001 128.954 40.8 129.154 40.5003C129.354 40.3003 129.454 40.0997 129.354 39.8997C129.354 39.5998 129.154 39.2996 128.755 38.8997C128.355 38.4999 128.054 38.3003 127.755 38.3001ZM120.554 17.5999C121.454 16.7001 122.854 16.7001 123.654 17.5999C124.554 18.4999 124.554 19.8995 123.654 20.6995L109.054 35.3997C108.654 35.7997 108.054 36.0003 107.454 36.0003L107.334 35.9905C106.829 35.9468 106.391 35.7497 105.954 35.3997C105.054 34.4998 105.054 33.1001 105.954 32.3001L120.554 17.5999ZM122.154 18.0999C121.954 18.0999 121.654 18.0998 121.454 18.3997L106.854 33.0999C106.454 33.4999 106.454 34.1003 106.854 34.5003C107.254 34.9002 107.855 34.9003 108.255 34.5003L122.854 19.8001C123.254 19.4001 123.254 18.7997 122.854 18.3997C122.654 18.1998 122.454 18.0999 122.154 18.0999ZM96.5543 24.3001C97.0542 24.1002 97.4539 24.1002 97.9537 24.3001C98.3537 24.4001 98.7543 24.6003 99.0543 25.0003L100.854 26.8001L98.6539 29.0003C98.1541 29.5001 97.6544 29.8003 97.2545 30.0003C96.9545 30.1003 96.6537 30.1995 96.4537 30.1995L95.9537 30.0003C95.5539 29.9003 95.1543 29.6 94.7545 29.3001C94.1546 28.7001 93.9538 28.0001 93.9537 27.3001C93.9537 26.6002 94.354 26 95.1539 25.3001C95.6539 24.8001 96.1543 24.5001 96.5543 24.3001ZM132.554 23.0003C133.054 22.8004 133.554 22.8004 133.954 23.0003C134.354 23.1003 134.754 23.3996 135.154 23.6995C135.754 24.2994 135.954 24.9997 135.954 25.6995C135.954 26.3994 135.554 26.9997 134.755 27.6995C134.255 28.1994 133.754 28.4995 133.354 28.6995C133.054 28.6995 132.854 28.8001 132.554 28.8001L131.854 28.6995C131.454 28.5995 131.054 28.4 130.755 28.0003L128.954 26.1995L131.154 24.0003C131.654 23.5003 132.154 23.2003 132.554 23.0003ZM97.0543 25.3001C96.8543 25.3001 96.5539 25.5003 96.1539 26.0003C95.5541 26.6002 95.3541 27.0002 95.3541 27.3001C95.3541 27.7 95.3546 28.0001 95.7545 28.3001C95.9544 28.4999 96.1543 28.5996 96.3541 28.6995H96.9537C97.1537 28.6995 97.4539 28.5 97.9537 28.0003L99.2545 26.6995L98.2545 25.6995C98.0545 25.4995 97.8539 25.4001 97.6539 25.3001H97.0543ZM132.954 24.0003C132.754 24.0006 132.453 24.1999 131.954 24.6995L130.654 26.0003L131.654 27.0003C131.854 27.2003 132.055 27.2997 132.255 27.3997H132.854C133.054 27.3997 133.355 27.1995 133.755 26.6995C134.354 26.0998 134.554 25.6996 134.554 25.3997C134.554 24.9999 134.554 24.6997 134.154 24.3997C133.954 24.2 133.754 24.1002 133.554 24.0003H132.954ZM120.755 10.0003C121.355 9.40034 122.454 9.40032 123.054 10.0003C123.654 10.6003 123.654 11.6998 123.054 12.3997L120.255 15.1995C119.655 15.8995 118.554 15.8995 117.954 15.1995C117.354 14.5995 117.354 13.5 117.954 12.8001L120.755 10.0003ZM101.755 10.5999C102.154 10.7 102.554 11.0005 102.954 11.5003C103.354 12.0001 103.654 12.3996 103.854 12.6995C103.954 13.0994 104.054 13.3996 103.854 13.6995C103.854 13.9994 103.554 14.3 103.255 14.5999C102.955 14.8999 102.654 15.0995 102.354 15.1995H101.354C100.954 15.0995 100.554 14.8001 100.154 14.3001C99.5539 13.7001 99.1539 13.0999 99.1539 12.5999C99.1539 11.9999 99.2545 11.4999 99.7545 11.0999L100.079 10.9935C100.304 10.8059 100.529 10.6749 100.755 10.5999H101.755ZM101.154 11.6995C100.854 11.6995 100.654 11.6998 100.454 11.8997L100.479 12.0901C100.404 12.1932 100.329 12.3246 100.255 12.3997V12.8997C100.255 13.0997 100.554 13.2999 100.854 13.5999C101.254 13.9999 101.554 14.1995 101.854 14.1995C102.154 14.1995 102.354 14.1997 102.554 13.8997C102.754 13.6999 102.854 13.4999 102.755 13.3001C102.755 13.0001 102.554 12.7001 102.154 12.3001C101.754 11.9001 101.454 11.6995 101.154 11.6995Z" fill="#B3E0E1"/>
</svg>
