<svg width="24" height="24" viewBox="0 0 24 24" fill="none">
  <g clip-path="url(#clip0_3619_47872)">
    <path d="M12 0C5.376 0 0 5.376 0 12C0 18.624 5.376 24 12 24C18.624 24 24 18.624 24 12C24 5.376 18.624 0 12 0Z" fill="#0F6D38"/>
    <path d="M17.5577 8.67838L11.8073 17.4624C11.7785 17.5104 11.7593 17.5584 11.7209 17.5968C11.6729 17.6544 11.6057 17.6832 11.5385 17.7312C11.5193 17.7408 11.5097 17.7504 11.4905 17.76C11.3945 17.8176 11.2985 17.856 11.1929 17.8848C11.1545 17.8848 11.1257 17.904 11.0873 17.904C11.0009 17.9136 10.9241 17.9136 10.8377 17.904C10.7801 17.904 10.7225 17.8944 10.6649 17.8752C10.6073 17.856 10.5497 17.8368 10.4921 17.808C10.4441 17.7888 10.3961 17.7792 10.3481 17.7504C10.3193 17.7312 10.3001 17.6928 10.2713 17.6736C10.2617 17.664 10.2425 17.664 10.2329 17.6544L6.88253 14.5632C6.46013 14.1696 6.43133 13.5072 6.82493 13.0752C7.21853 12.6528 7.88093 12.624 8.31293 13.0176L10.7321 15.2544L15.7913 7.51678C16.1081 7.03678 16.7609 6.89278 17.2409 7.20958C17.7305 7.52638 17.8649 8.17918 17.5481 8.65918L17.5577 8.67838Z" fill="#E5F1E7"/>
  </g>
  <defs>
    <clipPath id="clip0_3619_47872">
      <rect width="24" height="24" fill="white"/>
    </clipPath>
  </defs>
</svg>
