<svg xmlns="http://www.w3.org/2000/svg" width="112" height="32" viewBox="0 0 112 32" fill="none">
    <path d="M16.0703 0.418945C24.734 0.419001 25.8523 2.65486 29.2061 6.42773L25.1533 10.3408C22.3586 7.40644 19.424 6.0089 15.9307 6.00879C10.341 6.00879 5.72949 10.3409 5.72949 16.3496C5.72972 22.3581 10.2013 26.6895 16.0703 26.6895C21.9392 26.6894 22.3585 25.1521 25.1533 22.3574L28.9961 26.3379C25.1111 30.2031 21.6263 31.9999 15.9307 32C6.42823 32 0 25.4317 0 16.209C0.000223932 6.9865 7.40646 0.418945 16.0703 0.418945ZM43.04 8.38379C48.7692 8.38379 48.0712 9.36209 50.0273 11.458V9.08301H55.6172V31.3008H50.0273V28.9258C48.071 30.8821 45.9745 31.8604 43.1797 31.8604C37.5901 31.8602 32.5596 26.9691 32.5596 20.1221C32.5596 13.275 37.3107 8.38387 43.04 8.38379ZM84.9629 17.3271C85.3821 21.3796 87.4784 24.5934 90.5527 26.6895C90.9719 26.9689 91.2517 27.2489 91.6709 27.3887C92.7887 27.9475 94.0462 28.367 95.3037 28.6465C95.7229 28.7862 96.1423 28.7861 96.5615 28.7861H98.2383C102.431 28.7861 106.064 26.9689 108.858 23.7549L111.234 25.5723C108.16 29.4848 103.548 31.5801 98.0986 31.5801C96.2821 31.5801 94.745 31.4406 93.208 31.0215C92.6492 30.8818 92.2296 30.6027 91.6709 30.4629C89.994 29.9039 88.4559 29.0652 87.1982 27.9473H86.7793L86.2207 26.9688C83.7054 24.4535 82.1682 21.1 81.8887 17.3271H84.9629ZM66.2373 31.3008H60.6475V0.418945H66.2373V31.3008ZM86.9189 0.978516C88.0367 0.978516 89.0151 1.11809 89.9932 1.25781C88.5959 1.95647 87.3386 2.935 86.2207 3.91309H75.1807V13.5547H86.5C88.1768 13.415 89.5745 13.1361 90.6924 12.4375C91.95 11.4594 92.788 9.9219 92.7881 8.24512C92.7881 7.26696 92.5091 6.42818 91.9502 5.72949C92.7886 5.17063 93.767 4.75113 94.8848 4.47168C95.5835 5.58958 95.8623 5.5901 95.8623 8.24512C95.8623 10.9 94.6051 13.1358 91.9502 14.5332L92.0898 14.6729C96.2819 16.0702 98.3779 18.7253 98.3779 22.498C98.3779 24.4544 97.6796 26.4111 96.4219 27.9482C95.1642 27.8085 94.0457 27.3889 92.9277 26.9697C94.1854 25.9916 95.3037 24.4544 95.3037 22.498C95.3036 20.5418 94.1857 18.7252 92.3691 17.7471C90.832 16.9087 88.736 16.6289 86.2207 16.6289H75.041V28.2275H86.0811C87.3387 29.3454 88.7364 30.3238 90.2734 31.0225H72.1064V0.978516H86.9189ZM44.1582 13.415C40.6647 13.415 38.1494 16.3493 38.1494 19.9824V20.1221C38.1494 23.895 40.6647 26.6895 44.1582 26.6895C47.6517 26.6894 50.3066 24.0348 50.3066 19.9824C50.3066 15.9301 47.6517 13.4151 44.1582 13.415ZM29.0664 26.4102L28.9961 26.3379C29.019 26.3151 29.0435 26.2934 29.0664 26.2705V26.4102ZM98.2383 0C103.688 0 108.439 2.096 111.374 6.28809L108.998 8.10449C106.343 4.61129 102.57 2.93457 98.2383 2.93457C97.1204 2.93457 96.2819 3.07413 95.3037 3.21387C94.8845 3.35361 94.465 3.49316 94.1855 3.49316C93.0677 3.91236 92.0895 4.33169 91.1113 4.89062C90.8319 5.03034 90.5529 5.31043 90.2734 5.4502C88.0376 7.12704 86.3599 9.50205 85.5215 12.4365H82.4473C83.0062 9.50207 84.4039 6.84702 86.5 4.75098L87.3389 3.77246H87.6182C88.5963 2.93418 89.8538 2.09599 91.251 1.53711C91.6701 1.25767 92.0896 1.11823 92.5088 0.978516C94.3254 0.279826 92.7884 4.58515e-07 98.2383 0Z"
          fill="white"/>
</svg>