<svg width="24" height="24" viewBox="0 0 24 24" fill="none" xmlns="http://www.w3.org/2000/svg">
<path d="M12.0002 14.5061L19.2545 7.25156C19.5285 6.97773 19.8552 6.84398 20.2347 6.85031C20.6142 6.85665 20.941 6.99673 21.215 7.27056C21.4888 7.54456 21.6257 7.87231 21.6257 8.25381C21.6257 8.63531 21.4888 8.96306 21.215 9.23706L13.6165 16.8223C13.3886 17.0501 13.1338 17.2201 12.852 17.3321C12.57 17.4441 12.2861 17.5001 12.0002 17.5001C11.7144 17.5001 11.4305 17.4441 11.1485 17.3321C10.8666 17.2201 10.6118 17.0501 10.384 16.8223L2.77948 9.21806C2.50565 8.94406 2.3729 8.62048 2.38123 8.24731C2.38956 7.87415 2.53065 7.55056 2.80448 7.27656C3.07848 7.00273 3.40623 6.86581 3.78773 6.86581C4.16923 6.86581 4.49698 7.00273 4.77098 7.27656L12.0002 14.5061Z" fill="#027C76"/>
</svg>
