<svg width="16" height="16" viewBox="0 0 16 16" fill="none">
  <path d="M6.33398 7.99999L11.1702 12.8362C11.3528 13.0188 11.442 13.2345 11.4378 13.4833C11.4336 13.7321 11.3388 13.9492 11.1535 14.1345C10.9709 14.317 10.7553 14.4083 10.5065 14.4083C10.2577 14.4083 10.042 14.317 9.85932 14.1345L4.78582 9.07749C4.63393 8.9256 4.52065 8.75571 4.44598 8.56782C4.37132 8.37982 4.33398 8.19054 4.33398 7.99999C4.33398 7.80943 4.37132 7.62015 4.44598 7.43215C4.52065 7.24426 4.63393 7.07437 4.78582 6.92249L9.85932 1.85282C10.042 1.67026 10.2598 1.58043 10.5128 1.58332C10.7658 1.58621 10.9849 1.68026 11.1702 1.86549C11.3528 2.04815 11.4442 2.26454 11.4442 2.51465C11.4442 2.76476 11.3528 2.98115 11.1702 3.16382L6.33398 7.99999Z" fill="currentColor"/>
</svg>
