<svg width="16" height="16" viewBox="0 0 16 16" fill="none">
  <path d="M9.67038 7.99999L4.83405 12.8362C4.65149 13.0188 4.56233 13.2367 4.56655 13.4897C4.57077 13.7427 4.66416 13.9605 4.84672 14.1432C5.02938 14.3257 5.24788 14.417 5.50222 14.417C5.75655 14.417 5.97505 14.3257 6.15772 14.1432L11.2145 9.07749C11.3664 8.9256 11.4797 8.75571 11.5544 8.56782C11.629 8.37983 11.6664 8.19055 11.6664 7.99999C11.6664 7.80944 11.629 7.62016 11.5544 7.43216C11.4797 7.24427 11.3664 7.07438 11.2145 6.92249L6.14505 1.85282C5.96238 1.67027 5.74666 1.58177 5.49788 1.58732C5.24911 1.59288 5.03338 1.68694 4.85072 1.86949C4.66816 2.05216 4.57688 2.27066 4.57688 2.52499C4.57688 2.77932 4.66816 2.99782 4.85072 3.18049L9.67038 7.99999Z" fill="currentColor"/>
</svg>
