<svg width="24" height="24" viewBox="0 0 24 24" fill="none">
  <path d="M6.93398 21.2033C6.30432 21.2033 5.76773 20.9816 5.32423 20.5381C4.88073 20.0946 4.65898 19.558 4.65898 18.9283V6.06582C4.33982 6.06582 4.0704 5.95607 3.85073 5.73657C3.63123 5.5169 3.52148 5.24749 3.52148 4.92832C3.52148 4.60915 3.63123 4.33974 3.85073 4.12007C4.0704 3.90057 4.33982 3.79082 4.65898 3.79082H8.86223C8.86223 3.47165 8.97198 3.20224 9.19148 2.98257C9.41115 2.76307 9.68057 2.65332 9.99973 2.65332H13.9877C14.3069 2.65332 14.5763 2.76307 14.796 2.98257C15.0155 3.20224 15.1252 3.47165 15.1252 3.79082H19.3405C19.6597 3.79082 19.9291 3.90057 20.1487 4.12007C20.3682 4.33974 20.478 4.60915 20.478 4.92832C20.478 5.24749 20.3682 5.5169 20.1487 5.73657C19.9291 5.95607 19.6597 6.06582 19.3405 6.06582V18.9283C19.3405 19.558 19.1187 20.0946 18.6752 20.5381C18.2317 20.9816 17.6952 21.2033 17.0655 21.2033H6.93398ZM17.0655 6.06582H6.93398V18.9283H17.0655V6.06582ZM9.96398 16.9941C10.2632 16.9941 10.5156 16.8912 10.7212 16.6856C10.9269 16.4801 11.0297 16.2277 11.0297 15.9283V9.05982C11.0297 8.76049 10.9269 8.50807 10.7212 8.30257C10.5156 8.0969 10.2632 7.99407 9.96398 7.99407C9.66465 7.99407 9.41115 8.0969 9.20348 8.30257C8.99598 8.50807 8.89223 8.76049 8.89223 9.05982V15.9283C8.89223 16.2277 8.99598 16.4801 9.20348 16.6856C9.41115 16.8912 9.66465 16.9941 9.96398 16.9941ZM14.0415 16.9941C14.3408 16.9941 14.5933 16.8912 14.799 16.6856C15.0045 16.4801 15.1072 16.2277 15.1072 15.9283V9.05982C15.1072 8.76049 15.0045 8.50807 14.799 8.30257C14.5933 8.0969 14.3408 7.99407 14.0415 7.99407C13.7423 7.99407 13.4889 8.0969 13.2812 8.30257C13.0736 8.50807 12.9697 8.76049 12.9697 9.05982V15.9283C12.9697 16.2277 13.0736 16.4801 13.2812 16.6856C13.4889 16.8912 13.7423 16.9941 14.0415 16.9941Z" fill="currentColor"/>
</svg>
