<svg width="24" height="24" viewBox="0 0 24 24" fill="none">
  <path d="M11.9999 15.4494C12.1492 15.4494 12.2921 15.4235 12.4286 15.3719C12.5653 15.3202 12.6896 15.2385 12.8016 15.1266L16.4911 11.4369C16.7151 11.2129 16.824 10.9476 16.8176 10.6411C16.8113 10.3346 16.7025 10.0695 16.4911 9.84563C16.2633 9.61763 15.994 9.50046 15.6831 9.49413C15.3721 9.4878 15.1027 9.59855 14.8749 9.82638L13.1374 11.5639L13.1374 4.93413C13.1374 4.61496 13.0276 4.34555 12.8081 4.12588C12.5885 3.90638 12.319 3.79663 11.9999 3.79663C11.6807 3.79663 11.4113 3.90638 11.1916 4.12588C10.9721 4.34555 10.8624 4.61496 10.8624 4.93413L10.8624 11.5639L9.12487 9.82638C8.90104 9.59855 8.63362 9.4868 8.32262 9.49113C8.01179 9.49546 7.74246 9.61163 7.51463 9.83963C7.29929 10.0675 7.18846 10.3336 7.18212 10.6381C7.17579 10.9426 7.28663 11.2089 7.51463 11.4369L11.1981 15.1266C11.3101 15.2385 11.4345 15.3202 11.5711 15.3719C11.7076 15.4235 11.8505 15.4494 11.9999 15.4494ZM17.9281 20.2031C18.5578 20.2031 19.0944 19.9814 19.5379 19.5379C19.9814 19.0944 20.2031 18.5578 20.2031 17.9281L20.2031 16.0656C20.2031 15.7465 20.0934 15.477 19.8739 15.2574C19.6542 15.0379 19.3848 14.9281 19.0656 14.9281C18.7465 14.9281 18.477 15.0379 18.2574 15.2574C18.0379 15.477 17.9281 15.7465 17.9281 16.0656L17.9281 17.9281L6.07162 17.9281L6.07162 16.0656C6.07162 15.7465 5.96187 15.477 5.74238 15.2574C5.52271 15.0379 5.25329 14.9281 4.93412 14.9281C4.61496 14.9281 4.34554 15.0379 4.12587 15.2574C3.90637 15.477 3.79662 15.7465 3.79662 16.0656L3.79662 17.9281C3.79662 18.5578 4.01837 19.0944 4.46187 19.5379C4.90537 19.9814 5.44196 20.2031 6.07162 20.2031L17.9281 20.2031Z" fill="currentColor"/>
</svg>
