<svg width="17" height="17" viewBox="0 0 17 17" fill="none">
  <path d="M7.06575 9.34075H1.1375C0.818333 9.34075 0.548917 9.231 0.32925 9.0115C0.10975 8.79183 0 8.52242 0 8.20325C0 7.88408 0.10975 7.61467 0.32925 7.395C0.548917 7.1755 0.818333 7.06575 1.1375 7.06575H7.06575V1.1375C7.06575 0.818333 7.1755 0.548916 7.395 0.32925C7.61467 0.10975 7.88408 0 8.20325 0C8.52242 0 8.79183 0.10975 9.0115 0.32925C9.231 0.548916 9.34075 0.818333 9.34075 1.1375V7.06575H15.269C15.5882 7.06575 15.8576 7.1755 16.0773 7.395C16.2968 7.61467 16.4065 7.88408 16.4065 8.20325C16.4065 8.52242 16.2968 8.79183 16.0773 9.0115C15.8576 9.231 15.5882 9.34075 15.269 9.34075H9.34075V15.269C9.34075 15.5882 9.231 15.8576 9.0115 16.0773C8.79183 16.2968 8.52242 16.4065 8.20325 16.4065C7.88408 16.4065 7.61467 16.2968 7.395 16.0773C7.1755 15.8576 7.06575 15.5882 7.06575 15.269V9.34075Z" fill="currentColor"/>
</svg>
